<svg xmlns="http://www.w3.org/2000/svg" width="28.373" height="34.88" viewBox="0 0 28.373 34.88">
  <g id="apple_2" data-name="apple 2" transform="translate(-138.551 -210.5)">
    <path id="Path_1561" data-name="Path 1561" d="M266.585,216.1a6.5,6.5,0,0,1-5.2,2.46,7.365,7.365,0,0,1,1.854-5.39A7.79,7.79,0,0,1,268.4,210.5a7.828,7.828,0,0,1-1.819,5.6" transform="translate(-108.747 0)" fill="#fff"/>
    <path id="Path_1562" data-name="Path 1562" d="M159.634,284.121c-2.872-.16-5.321,1.625-6.683,1.625-1.385,0-3.467-1.545-5.733-1.51a8.48,8.48,0,0,0-7.2,4.371c-3.09,5.321-.8,13.205,2.186,17.542,1.465,2.151,3.215,4.5,5.527,4.417,2.186-.08,3.055-1.419,5.7-1.419,2.666,0,3.421,1.419,5.733,1.385,2.392-.046,3.9-2.151,5.367-4.291a18.552,18.552,0,0,0,2.392-4.932,7.761,7.761,0,0,1-4.657-7.072,7.952,7.952,0,0,1,3.776-6.648,8.236,8.236,0,0,0-6.408-3.467" transform="translate(0 -65.188)" fill="#fff"/>
  </g>
</svg>
