<svg id="facebook" xmlns="http://www.w3.org/2000/svg" width="43.684" height="43.684" viewBox="0 0 43.684 43.684">
  <path id="Path_1490" data-name="Path 1490" d="M43.684,21.842A21.847,21.847,0,0,1,25.255,43.418V28.155h5.089l.968-6.314H25.255v-4.1c0-1.728.846-3.411,3.56-3.411h2.754V8.959a33.6,33.6,0,0,0-4.89-.427c-4.989,0-8.25,3.024-8.25,8.5v4.812H12.883v6.314h5.546V43.418A21.843,21.843,0,1,1,43.684,21.842Z" fill="#1877f2"/>
  <path id="Path_1491" data-name="Path 1491" d="M168.461,119.623l.968-6.314h-6.058v-4.1c0-1.727.846-3.411,3.559-3.411h2.754v-5.375A33.588,33.588,0,0,0,164.8,100c-4.989,0-8.25,3.024-8.25,8.5v4.812H151v6.314h5.546v15.263a22.075,22.075,0,0,0,6.826,0V119.623Z" transform="translate(-138.117 -91.468)" fill="#fff"/>
</svg>
