<?xml version="1.0" encoding="utf-8"?>
<!-- Generator: Adobe Illustrator 27.1.1, SVG Export Plug-In . SVG Version: 6.00 Build 0)  -->
<svg version="1.1" id="Layer_1" xmlns="http://www.w3.org/2000/svg" xmlns:xlink="http://www.w3.org/1999/xlink" x="0px" y="0px"
	 viewBox="0 0 400 400" style="enable-background:new 0 0 400 400;" xml:space="preserve">
<style type="text/css">
	.st0{fill:url(#SVGID_1_);}
	.st1{fill:#FFFFFF;}
</style>
<linearGradient id="SVGID_1_" gradientUnits="userSpaceOnUse" x1="207.4549" y1="20.9084" x2="188.1818" y2="483.9128">
	<stop  offset="0.0104" style="stop-color:#3A95F6"/>
	<stop  offset="1" style="stop-color:#6441FC"/>
</linearGradient>
<path class="st0" d="M330.42,400H69.58C31.15,400,0,368.85,0,330.42V69.58C0,31.15,31.15,0,69.58,0h260.84
	C368.85,0,400,31.15,400,69.58v260.84C400,368.85,368.85,400,330.42,400z"/>
<g id="ARROW_48">
	<path class="st1" d="M253.32,90.12h-93.97c-19.42,0.02-35.15,15.76-35.17,35.17V147c0,5.69,4.61,10.31,10.3,10.31
		c5.69,0,10.31-4.61,10.31-10.3c0,0,0-0.01,0-0.01V125.3c0.01-8.04,6.52-14.55,14.56-14.56h93.97c8.03,0.02,14.54,6.53,14.54,14.56
		V274.7c-0.01,8.04-6.52,14.55-14.56,14.56h-93.95c-8.04-0.01-14.55-6.52-14.56-14.56v-25.11c0-5.69-4.61-10.31-10.31-10.31
		c-5.69,0-10.31,4.61-10.31,10.31v25.11c0.02,19.42,15.76,35.15,35.17,35.17h93.97c19.41-0.03,35.13-15.76,35.16-35.17V125.3
		C288.45,105.89,272.73,90.16,253.32,90.12L253.32,90.12z"/>
	<path class="st1" d="M238.07,192.5l-36.68-36.66c-3.97-3.97-10.39-4.03-14.43-0.14c-4.17,4.01-4.07,10.79,0.02,14.88l19.1,19.11
		H104.66c-5.69,0-10.31,4.61-10.31,10.31s4.61,10.31,10.31,10.31h101.43l-19.28,19.28c-4.03,4.03-4.03,10.55,0,14.58
		c4.03,4.03,10.55,4.03,14.58,0l0,0l36.69-36.68c4.14-4.13,4.15-10.84,0.02-14.98C238.08,192.51,238.08,192.5,238.07,192.5
		L238.07,192.5z"/>
</g>
</svg>
