<?xml version="1.0" encoding="utf-8"?>
<!-- Generator: Adobe Illustrator 23.1.0, SVG Export Plug-In . SVG Version: 6.00 Build 0)  -->
<svg version="1.1" id="chatbot" xmlns="http://www.w3.org/2000/svg" xmlns:xlink="http://www.w3.org/1999/xlink" x="0px" y="0px"
	 viewBox="0 0 1578.17 1488.48" style="enable-background:new 0 0 1578.17 1488.48;" xml:space="preserve">
<style type="text/css">
	.st0{opacity:0.5;fill:url(#SVGID_1_);}
	.st1{fill:#E5F6FF;}
	.st2{fill:url(#SVGID_2_);}
	.st3{opacity:0.3;fill:url(#SVGID_3_);}
	.st4{fill:url(#SVGID_4_);}
	.st5{fill:url(#SVGID_5_);}
	.st6{fill:url(#SVGID_6_);}
	.st7{fill:url(#SVGID_7_);}
	.st8{fill:url(#SVGID_8_);}
	.st9{opacity:0.3;fill:url(#SVGID_9_);}
	.st10{opacity:0.5;fill:url(#SVGID_10_);}
	.st11{fill:url(#SVGID_11_);}
	.st12{fill:#DFE3FB;}
	.st13{fill:url(#SVGID_12_);}
	.st14{fill:url(#SVGID_13_);}
	.st15{fill:url(#SVGID_14_);}
	.st16{fill:url(#SVGID_15_);}
	.st17{opacity:0.5;fill:url(#SVGID_16_);}
	.st18{opacity:0.5;fill:url(#SVGID_17_);}
	.st19{opacity:0.5;fill:url(#SVGID_18_);}
	.st20{opacity:0.72;fill:url(#SVGID_19_);}
	.st21{opacity:0.72;fill:url(#SVGID_20_);}
	.st22{fill:#2F95CD;}
	.st23{fill:url(#SVGID_21_);}
	.st24{opacity:0.3;fill:url(#SVGID_22_);}
	.st25{fill:url(#SVGID_23_);}
	.st26{fill:url(#SVGID_24_);}
	.st27{opacity:0.5;fill:url(#SVGID_25_);}
	.st28{opacity:0.72;fill:url(#SVGID_26_);}
	.st29{opacity:0.72;fill:url(#SVGID_27_);}
	.st30{fill:#FFFFFF;}
	.st31{fill:url(#SVGID_28_);}
	.st32{fill:#6340A2;}
	.st33{opacity:0.5;fill:url(#SVGID_29_);}
	.st34{fill:url(#SVGID_30_);}
	.st35{fill:url(#SVGID_31_);}
	.st36{fill:url(#SVGID_32_);}
	.st37{fill:url(#SVGID_33_);}
	.st38{fill:url(#SVGID_34_);}
	.st39{fill:url(#SVGID_35_);}
	.st40{fill:url(#SVGID_36_);}
	.st41{opacity:0.5;fill:url(#SVGID_37_);}
	.st42{fill:url(#SVGID_38_);}
	.st43{fill:url(#SVGID_39_);}
	.st44{opacity:0.3;fill:url(#SVGID_40_);}
	.st45{opacity:0.5;fill:url(#SVGID_41_);}
	.st46{opacity:0.3;fill:url(#SVGID_42_);}
	.st47{fill:url(#SVGID_43_);}
	.st48{fill:url(#SVGID_44_);}
	.st49{fill:url(#SVGID_45_);}
	.st50{opacity:0.5;fill:url(#SVGID_46_);}
	.st51{fill:url(#SVGID_47_);}
	.st52{fill:url(#SVGID_48_);}
	.st53{fill:url(#SVGID_49_);}
	.st54{fill:url(#SVGID_50_);}
	.st55{fill:url(#SVGID_51_);}
	.st56{fill:url(#SVGID_52_);}
	.st57{opacity:0.3;fill:url(#SVGID_53_);}
	.st58{opacity:0.72;fill:url(#SVGID_54_);}
</style>
<g>
	
		<radialGradient id="SVGID_1_" cx="1498.4025" cy="2634.5564" r="240.6176" gradientTransform="matrix(-1 0 0 0.2225 2296.7664 712.9442)" gradientUnits="userSpaceOnUse">
		<stop  offset="0" style="stop-color:#BE9DEA"/>
		<stop  offset="0.3883" style="stop-color:#E0BFF5"/>
		<stop  offset="1" style="stop-color:#FFFFFF"/>
	</radialGradient>
	<ellipse class="st0" cx="798.36" cy="1299.13" rx="240.6" ry="53.54"/>
	<g>
		<g>
			<path class="st1" d="M1167.86,1115.18c-49.15,81.22-460.78,59.28-614.81-16.18c-154.03-75.46-141.82-610.68-68.51-707.29
				c73.32-96.61,506.49-256.84,697.19-151.98S1233.26,1007.1,1167.86,1115.18z"/>
			<path class="st1" d="M649.39,206.54c-0.41-39.66-113.96-89.31-165.38-75.9s-59.35,190.54,18.9,196.4
				C581.15,332.91,649.9,255.95,649.39,206.54z"/>
			<path class="st1" d="M1329.9,1072.41c9.68-41.97-46.58-96.12-76.26-88.38c-29.68,7.74-63.27,147.51-18.1,150.9
				C1280.72,1138.32,1323.49,1100.21,1329.9,1072.41z"/>
		</g>
		<g>
			
				<linearGradient id="SVGID_2_" gradientUnits="userSpaceOnUse" x1="1611.4694" y1="1113.5961" x2="1643.012" y2="996.2077" gradientTransform="matrix(-1 0 0 1 2296.7664 0)">
				<stop  offset="0" style="stop-color:#CBC1F7"/>
				<stop  offset="1" style="stop-color:#E8DCF7"/>
			</linearGradient>
			<path class="st2" d="M755.64,1087.47c0,0-124.9,54.06-148.02,32.22c-24.76-23.39,59.07-133.81,86.16-133.81
				C733.82,985.88,760.02,1071.19,755.64,1087.47z"/>
			
				<linearGradient id="SVGID_3_" gradientUnits="userSpaceOnUse" x1="1605.4365" y1="1124.2133" x2="1605.4365" y2="996.5181" gradientTransform="matrix(-1 0 0 1 2296.7664 0)">
				<stop  offset="0" style="stop-color:#9D68C2"/>
				<stop  offset="1" style="stop-color:#CCEDFF"/>
			</linearGradient>
			<path class="st3" d="M673.28,999.52c0,0,38.34,30.74,33.71,58.13c-4.63,27.39-69.46,66.57-69.46,66.57s56.6-11.44,107.61-31.37
				l-65.08-96.32L673.28,999.52z"/>
			
				<linearGradient id="SVGID_4_" gradientUnits="userSpaceOnUse" x1="1609.5793" y1="767.5566" x2="1619.5621" y2="494.7772" gradientTransform="matrix(-1 0 0 1 2296.7664 0)">
				<stop  offset="0" style="stop-color:#BE9DEA"/>
				<stop  offset="1" style="stop-color:#9E8CEF"/>
			</linearGradient>
			<path class="st4" d="M721.22,626.58c0,0-98.33-43.39-178.81-126.87c0,0-25.71,27.59-5.59,89.98c0,0,152.02,162.89,238.08,173.56
				c86.07,10.67,53.81-108.75,53.81-108.75S756.85,651.34,721.22,626.58z"/>
			
				<linearGradient id="SVGID_5_" gradientUnits="userSpaceOnUse" x1="588.2265" y1="620.5654" x2="588.2265" y2="469.3149" gradientTransform="matrix(0.8478 0.5303 -0.5303 0.8478 641.1885 -463.9487)">
				<stop  offset="0" style="stop-color:#45FFCD"/>
				<stop  offset="1" style="stop-color:#22E0FF"/>
			</linearGradient>
			<path class="st5" d="M892.38,246.73c0,0-57.65,14.93-103.86,80.22c-46.22,65.29,93.4,16.55,93.4,16.55L892.38,246.73z"/>
			
				<linearGradient id="SVGID_6_" gradientUnits="userSpaceOnUse" x1="630.6653" y1="556.8982" x2="630.6653" y2="427.7797" gradientTransform="matrix(0.8478 0.5303 -0.5303 0.8478 641.1885 -463.9487)">
				<stop  offset="0" style="stop-color:#B9ACF4"/>
				<stop  offset="1" style="stop-color:#E1D1F5"/>
			</linearGradient>
			<path class="st6" d="M823.46,306.92c0,0,67.92-73.59,104.89-75.1c36.97-1.51,73.59,43.7,73.59,43.7L823.46,306.92z"/>
			
				<linearGradient id="SVGID_7_" gradientUnits="userSpaceOnUse" x1="760.1839" y1="899.6984" x2="821.2089" y2="413.8127" gradientTransform="matrix(0.8478 0.5303 -0.5303 0.8478 641.1885 -463.9487)">
				<stop  offset="0" style="stop-color:#CBC1F7"/>
				<stop  offset="1" style="stop-color:#E8DCF7"/>
			</linearGradient>
			<path class="st7" d="M1101.19,752.13c-116.62,55.66-416.96-111.8-438.08-189.27c-8.41-30.85-5.99-63.06,4.81-94.34l0.05-0.08
				c46.31-133.82,246.08-250.87,407.63-173.51c109.44,52.46,142.01,190.49,121.22,303.05
				C1183.87,668.36,1150.08,728.79,1101.19,752.13z"/>
			
				<linearGradient id="SVGID_8_" gradientUnits="userSpaceOnUse" x1="612.4178" y1="839.3973" x2="1011.265" y2="839.3973" gradientTransform="matrix(0.8478 0.5303 -0.5303 0.8478 641.1885 -463.9487)">
				<stop  offset="0" style="stop-color:#8879EA"/>
				<stop  offset="1" style="stop-color:#9E8CEF"/>
			</linearGradient>
			<path class="st8" d="M1016.32,760.88c-45.72-6.69-109.23-25.65-148.66-43.6c-73.24-33.31-122.29-65.49-146.45-90.69l-0.04-0.03
				c-15.89-16.59-21.05-30.09-15.37-38.98c3.45-5.42,20.15-3.97,44.67,2.13c72,18.14,211.32,76.95,280.41,121.84
				c5.94,3.89,11.39,7.64,16.18,11.27c1.06,0.78,2.01,1.55,2.97,2.32c0.21,0.13,0.37,0.23,0.55,0.4
				c11.38,8.95,18.72,16.93,20.61,23.45c0.52,1.64,0.66,3.17,0.46,4.59C1070.1,764.4,1047.3,765.46,1016.32,760.88z"/>
			
				<linearGradient id="SVGID_9_" gradientUnits="userSpaceOnUse" x1="786.2606" y1="888.9154" x2="786.2606" y2="571.6685" gradientTransform="matrix(0.8478 0.5303 -0.5303 0.8478 641.1885 -463.9487)">
				<stop  offset="0" style="stop-color:#9D68C2"/>
				<stop  offset="1" style="stop-color:#CCEDFF"/>
			</linearGradient>
			<path class="st9" d="M1101.19,752.13c-116.62,55.66-416.96-111.8-438.08-189.27c-8.41-30.85-5.99-63.06,4.81-94.34l0.05-0.08
				c0,0,2.38,50.26,62.23,86.73C790,591.6,978.98,666.18,1029.06,655.46c50.07-10.72,93.26-144.17,93.26-144.17l74.49,86.7
				C1183.87,668.36,1150.08,728.79,1101.19,752.13z"/>
			
				<linearGradient id="SVGID_10_" gradientUnits="userSpaceOnUse" x1="811.8414" y1="882.123" x2="811.8414" y2="789.8709" gradientTransform="matrix(0.8478 0.5303 -0.5303 0.8478 641.1885 -463.9487)">
				<stop  offset="0" style="stop-color:#8DA4E5"/>
				<stop  offset="1" style="stop-color:#755CBB"/>
			</linearGradient>
			<path class="st10" d="M1016.32,760.88c-25.35-28.07-101.44-105.51-182.87-122.43c-99.86-20.83-112.23-11.87-112.23-11.87
				l-0.04-0.03c-15.89-16.59-21.05-30.09-15.37-38.98c3.45-5.42,20.15-3.97,44.67,2.13c72,18.14,211.32,76.95,280.41,121.84
				c7.13,4.92,13.54,9.44,19.15,13.59c0.21,0.13,0.37,0.23,0.55,0.4c11.38,8.95,18.72,16.93,20.61,23.45
				c0.52,1.64,0.66,3.17,0.46,4.59C1070.1,764.4,1047.3,765.46,1016.32,760.88z"/>
			
				<linearGradient id="SVGID_11_" gradientUnits="userSpaceOnUse" x1="799.7799" y1="862.5867" x2="807.3271" y2="802.4954" gradientTransform="matrix(0.9107 0.4131 -0.4131 0.9107 506.6664 -426.9677)">
				<stop  offset="0" style="stop-color:#5E36CC"/>
				<stop  offset="1" style="stop-color:#6C4A96"/>
			</linearGradient>
			<path class="st11" d="M1047.1,722.81c-24.83,8.71-114.36-14.66-161.68-36.18c-84.79-38.63-130.28-75.39-134.92-96.94
				C828.65,609.39,986.35,677.09,1047.1,722.81z"/>
			<path class="st12" d="M664.52,473.97c-4.31,44.69,258.37,180.93,357.88,144.64s137.12-291.01-14.53-335.15
				C863.3,241.39,672.32,392.99,664.52,473.97z"/>
			
				<linearGradient id="SVGID_12_" gradientUnits="userSpaceOnUse" x1="712.8536" y1="795.3457" x2="712.8536" y2="427.5053" gradientTransform="matrix(0.8478 0.5303 -0.5303 0.8478 641.1885 -463.9487)">
				<stop  offset="0" style="stop-color:#0665BD"/>
				<stop  offset="1" style="stop-color:#1A1F77"/>
			</linearGradient>
			<path class="st13" d="M667.98,468.44c-4.31,44.69,258.37,180.93,357.88,144.64c99.51-36.29,137.12-291.01-14.53-335.15
				C866.76,235.86,675.78,387.46,667.98,468.44z"/>
			
				<linearGradient id="SVGID_13_" gradientUnits="userSpaceOnUse" x1="991.3104" y1="595.8043" x2="991.3104" y2="346.7785" gradientTransform="matrix(0.9346 0.3556 -0.3556 0.9346 425.2886 -324.8416)">
				<stop  offset="0" style="stop-color:#B9ACF4"/>
				<stop  offset="1" style="stop-color:#E1D1F5"/>
			</linearGradient>
			<path class="st14" d="M1143.52,375.01c0,0-66.62,130.18-1.07,210.12c0,0,39.46,20.08,72.89,4.21c0,0-50.56,20.84-75.98-30.57
				c-25.41-51.4,22.26-148.28,64.55-169.66c42.28-21.38,82.07,3.62,82.07,3.62l-11.33-22.05
				C1274.64,370.67,1216.11,333.62,1143.52,375.01z"/>
			
				<linearGradient id="SVGID_14_" gradientUnits="userSpaceOnUse" x1="1010.3853" y1="586.3485" x2="1010.3853" y2="347.9352" gradientTransform="matrix(0.9346 0.3556 -0.3556 0.9346 425.2886 -324.8416)">
				<stop  offset="0" style="stop-color:#BE9DEA"/>
				<stop  offset="1" style="stop-color:#9E8CEF"/>
			</linearGradient>
			<path class="st15" d="M1274.64,370.67c0,0-45-22.05-98.19,19.67c-56.48,44.3-69.12,153.23-32.81,184.32
				c36.3,31.09,139.95-113.51,139.95-113.51l-0.09-73.24C1283.5,387.92,1282.05,377.11,1274.64,370.67z"/>
			
				<linearGradient id="SVGID_15_" gradientUnits="userSpaceOnUse" x1="1028.3796" y1="592.2692" x2="1028.3796" y2="358.5783" gradientTransform="matrix(0.9346 0.3556 -0.3556 0.9346 425.2886 -324.8416)">
				<stop  offset="0" style="stop-color:#45FFCD"/>
				<stop  offset="1" style="stop-color:#22E0FF"/>
			</linearGradient>
			<path class="st16" d="M1282.81,530.56c-17.81,28.76-40.1,49.32-63.11,58.93l-0.17,0.04l-6.32,2.38l-0.05-0.02
				c-17.9,5.89-36.07,4.96-52.72-3.93c-54.02-28.83-30.38-113.96-5.97-158c28.25-50.86,86.59-65.66,121.42-47
				C1317.34,405.19,1317.7,474.26,1282.81,530.56z"/>
			
				<linearGradient id="SVGID_16_" gradientUnits="userSpaceOnUse" x1="562.6351" y1="509.2652" x2="878.7687" y2="509.2652" gradientTransform="matrix(0.8478 0.5303 -0.5303 0.8478 641.1885 -463.9487)">
				<stop  offset="0" style="stop-color:#000000"/>
				<stop  offset="1" style="stop-color:#6A9BFF"/>
			</linearGradient>
			<path class="st17" d="M809.35,329.47c2.6,11.84,65.01,4.89,119.98,32.76c54.97,27.87,95.91,108.2,145.48,119.31
				c39.35,8.82,41.93-143.93-48.2-192.47C936.47,240.53,806.77,317.73,809.35,329.47z"/>
			
				<linearGradient id="SVGID_17_" gradientUnits="userSpaceOnUse" x1="582.1545" y1="764.5938" x2="813.8192" y2="764.5938" gradientTransform="matrix(0.8478 0.5303 -0.5303 0.8478 641.1885 -463.9487)">
				<stop  offset="0" style="stop-color:#000000"/>
				<stop  offset="1" style="stop-color:#6A9BFF"/>
			</linearGradient>
			<path class="st18" d="M722.7,503.5c0,0,65.65,7.21,136.01,43.81c70.36,36.6,79.21,48.98,75.2,55.38
				c-4.01,6.4-63-0.07-127.71-33.3C741.49,536.15,722.7,503.5,722.7,503.5z"/>
			
				<linearGradient id="SVGID_18_" gradientUnits="userSpaceOnUse" x1="529.8834" y1="764.585" x2="529.8834" y2="613.6263" gradientTransform="matrix(0.8478 0.5303 -0.5303 0.8478 641.1885 -463.9487)">
				<stop  offset="0" style="stop-color:#000000"/>
				<stop  offset="1" style="stop-color:#6A9BFF"/>
			</linearGradient>
			<path class="st19" d="M674.17,458.51c0,0,12.48-54.72,87.57-110c0,0,14.49-7.62,17.49-1.7
				C782.23,352.72,714.9,387.83,674.17,458.51z"/>
			
				<linearGradient id="SVGID_19_" gradientUnits="userSpaceOnUse" x1="1023.9088" y1="584.6335" x2="1023.9088" y2="516.3851" gradientTransform="matrix(0.9346 0.3556 -0.3556 0.9346 425.2886 -324.8416)">
				<stop  offset="0" style="stop-color:#D4E2FF"/>
				<stop  offset="1" style="stop-color:#000000"/>
			</linearGradient>
			<path class="st20" d="M1138.75,499.1c0,0-13.16,52.73,19.73,77.72c32.89,24.99,73.22,9.68,97.09-24.57c0,0-24.04,28.22-69.1,1.52
				C1141.42,527.07,1138.75,499.1,1138.75,499.1z"/>
			
				<linearGradient id="SVGID_20_" gradientUnits="userSpaceOnUse" x1="967.1677" y1="401.3231" x2="1100.8937" y2="401.3231" gradientTransform="matrix(0.9346 0.3556 -0.3556 0.9346 425.2886 -324.8416)">
				<stop  offset="0" style="stop-color:#000000"/>
				<stop  offset="1" style="stop-color:#D4E2FF"/>
			</linearGradient>
			<path class="st21" d="M1181.83,406.43c-3.14,9.56,72.28,15.92,92.81,27.01c20.53,11.1,19.63,41.12,23.31,41.8
				c3.69,0.68,18.09-64.82-20.35-84.71C1239.16,370.65,1184.01,399.78,1181.83,406.43z"/>
			<path class="st22" d="M799,435.9c0,0,68.18,37.55,110.13,42.68c0,0-42.55,57.01-86.34,40.1C778.99,501.77,799,435.9,799,435.9z"
				/>
			<g>
				
					<linearGradient id="SVGID_21_" gradientUnits="userSpaceOnUse" x1="715.2531" y1="1075.7751" x2="773.0208" y2="615.8243" gradientTransform="matrix(0.9961 -0.0886 0.0886 0.9961 6.0829 99.7939)">
					<stop  offset="0" style="stop-color:#CBC1F7"/>
					<stop  offset="1" style="stop-color:#E8DCF7"/>
				</linearGradient>
				<path class="st23" d="M972.01,958.52c-12.3,96.1-62.67,141.35-159.47,148.64c-94.87,7.12-162.22-90.4-142.37-213.69
					c12.68-78.71,29.28-149.02,65.85-195.09c0.04-0.05,0.04-0.05,0.04-0.05l0.04-0.1c20.68-26.05,47.77-44.28,84.15-51.91
					c28.71-6.02,54.17,7.44,75.71,32.23C952.04,743.13,981.44,884.44,972.01,958.52z"/>
				
					<linearGradient id="SVGID_22_" gradientUnits="userSpaceOnUse" x1="803.1457" y1="1074.8175" x2="803.1457" y2="707.0158" gradientTransform="matrix(0.9961 -0.0886 0.0886 0.9961 6.0829 99.7939)">
					<stop  offset="0" style="stop-color:#9D68C2"/>
					<stop  offset="1" style="stop-color:#CCEDFF"/>
				</linearGradient>
				<path class="st24" d="M828.71,750.44c0,0,58.66,98.16,58.96,147.38c1,167.56-75.12,209.34-75.12,209.34s67.99-5.18,96.31-30.18
					c30.92-27.31,71-76.87,63.9-180.12c-5.59-81.33-45.32-169.18-45.32-169.18L828.71,750.44z"/>
				
					<linearGradient id="SVGID_23_" gradientUnits="userSpaceOnUse" x1="431.22" y1="915.6844" x2="656.7915" y2="915.6844" gradientTransform="matrix(0.7487 -0.0666 0.0886 0.9961 267.1208 76.6322)">
					<stop  offset="0" style="stop-color:#BE9DEA"/>
					<stop  offset="1" style="stop-color:#9E8CEF"/>
				</linearGradient>
				<path class="st25" d="M667.23,894.92c0,0,10.22-72.71,61.41-77.26c61.35-5.45,110.71,81.08,112.47,142.6
					c1.76,61.52-7.21,120.1-64.94,127.67C776.17,1087.93,667.36,1094.35,667.23,894.92z"/>
				
					<radialGradient id="SVGID_24_" cx="548.5499" cy="1018.6966" r="170.4715" gradientTransform="matrix(0.7487 -0.0666 0.0886 0.9961 267.1208 76.6322)" gradientUnits="userSpaceOnUse">
					<stop  offset="0" style="stop-color:#45FFCD"/>
					<stop  offset="1" style="stop-color:#22E0FF"/>
				</radialGradient>
				<path class="st26" d="M668.6,903.57c0,0,10.22-72.71,61.41-77.26c61.35-5.45,110.71,81.08,112.47,142.6
					c1.76,61.52-7.21,120.1-64.95,127.67C777.53,1096.58,668.72,1103,668.6,903.57z"/>
				
					<linearGradient id="SVGID_25_" gradientUnits="userSpaceOnUse" x1="752.1284" y1="688.2496" x2="752.1284" y2="615.2168" gradientTransform="matrix(0.9961 -0.0886 0.0886 0.9961 6.0829 99.7939)">
					<stop  offset="0" style="stop-color:#8DA4E5"/>
					<stop  offset="1" style="stop-color:#755CBB"/>
				</linearGradient>
				<path class="st27" d="M895.1,677.82c0,0-96.45,46.46-135.1,45.55c-37.52-0.86-25.55-24.39-24.84-25.72
					c0.04-0.05,0.04-0.05,0.04-0.05l0.04-0.1c20.68-26.05,47.77-44.28,84.15-51.91C848.1,639.58,873.57,653.03,895.1,677.82z"/>
				
					<linearGradient id="SVGID_26_" gradientUnits="userSpaceOnUse" x1="442.9565" y1="836.4259" x2="630.1239" y2="836.4259" gradientTransform="matrix(0.7487 -0.0666 0.0886 0.9961 267.1208 76.6322)">
					<stop  offset="0" style="stop-color:#000000"/>
					<stop  offset="1" style="stop-color:#D4E2FF"/>
				</linearGradient>
				<path class="st28" d="M674.55,896.46c9.46,18.89,36.01-8.75,72.41-6.44s57.97,25.87,67.7,18.03
					c9.73-7.84-29.14-76.4-84.58-74.36C685.8,835.33,671.32,890.03,674.55,896.46z"/>
				
					<linearGradient id="SVGID_27_" gradientUnits="userSpaceOnUse" x1="545.8188" y1="1052.7505" x2="545.8188" y2="1031.1367" gradientTransform="matrix(0.7487 -0.0666 0.0886 0.9961 267.1208 76.6322)">
					<stop  offset="0" style="stop-color:#D4E2FF"/>
					<stop  offset="1" style="stop-color:#000000"/>
				</linearGradient>
				<path class="st29" d="M730.53,1070.65c0,0,16.85,18.94,41.9,17.91c25.05-1.03,31.9-17.83,31.9-17.83s-11.61-5.44-28.8,0.71
					C758.35,1077.59,742.04,1075.94,730.53,1070.65z"/>
				<path class="st30" d="M836.18,741.89c-5.77,0.67-10.9,57.98-6.08,59.44c4.82,1.46,10.05-11.06,12.99-29.96
					C846.04,752.47,841.75,741.25,836.18,741.89z"/>
				
					<linearGradient id="SVGID_28_" gradientUnits="userSpaceOnUse" x1="1421.7595" y1="780.8577" x2="1355.2736" y2="774.9471" gradientTransform="matrix(-1 0 0 1 2296.7664 0)">
					<stop  offset="0" style="stop-color:#8879EA"/>
					<stop  offset="1" style="stop-color:#9E8CEF"/>
				</linearGradient>
				<path class="st31" d="M875.7,770.25c6.22,31.35,23.44,66,38.34,80.75c5.22,5.22,10.22,7.91,14.29,7.3
					c15.91-2.38,25.51-46.79,3.84-101.04c-17.75-44.64-41.72-62.08-50.63-59.01c-4.07,1.46-8.53,7.61-9.99,21.28
					C870.32,730.76,871.09,747.2,875.7,770.25z"/>
				<path class="st32" d="M875.7,770.25c6.22,31.35,23.44,66,38.34,80.75c0,0,20.9-104.11-42.49-131.46
					C870.32,730.76,871.09,747.2,875.7,770.25z"/>
			</g>
			
				<linearGradient id="SVGID_29_" gradientUnits="userSpaceOnUse" x1="1500.4731" y1="862.354" x2="1500.4731" y2="780.3427" gradientTransform="matrix(-1 0 0 1 2296.7664 0)">
				<stop  offset="0" style="stop-color:#8DA4E5"/>
				<stop  offset="1" style="stop-color:#755CBB"/>
			</linearGradient>
			<path class="st33" d="M902.4,839.87c0,0-78.26,33.8-146.28,18.52c-68.03-15.28-65.92-61.31-65.92-61.31l5-16.74L902.4,839.87z"/>
			
				<linearGradient id="SVGID_30_" gradientUnits="userSpaceOnUse" x1="1320.3641" y1="1205.2881" x2="1385.3091" y2="963.5908" gradientTransform="matrix(-1 0 0 1 2296.7664 0)">
				<stop  offset="0" style="stop-color:#CBC1F7"/>
				<stop  offset="1" style="stop-color:#E8DCF7"/>
			</linearGradient>
			<path class="st34" d="M859.86,1033.25c0,0,20.71,170.37,64.24,183.7c1.12,0.35,2.18,0.59,3.3,0.71
				c34.69,4.07,74.63-166.42,68.79-226c-1.47-15.1-7.49-25.37-16.34-31.38C948.83,939.15,883.34,970.6,859.86,1033.25z"/>
			
				<linearGradient id="SVGID_31_" gradientUnits="userSpaceOnUse" x1="1521.2207" y1="873.9531" x2="1601.2947" y2="575.9517" gradientTransform="matrix(-1 0 0 1 2296.7664 0)">
				<stop  offset="0" style="stop-color:#CBC1F7"/>
				<stop  offset="1" style="stop-color:#E8DCF7"/>
			</linearGradient>
			<path class="st35" d="M554.93,687.84c0,0.06,0.06,0.12,0.06,0.18C732.32,837.27,902.4,839.87,902.4,839.87
				c19.41-36.93,10.74-124.36-8.85-136.69c-0.94-0.65-1.89-1.06-2.89-1.24c-0.06-0.06-0.06-0.06-0.06-0.06
				c-110.14-25.13-219.69-59.23-277.68-78.22l-0.47-0.12c-21-6.9-35.16-11.74-40-13.39l-1.83-0.65c0,0-0.24,0.12-0.65,0.29
				c-2.89,0.94-5.31,2.6-7.32,4.78c0,0.06-0.06,0.06-0.06,0.06C545.9,632.45,554.4,684.42,554.93,687.84z"/>
			
				<linearGradient id="SVGID_32_" gradientUnits="userSpaceOnUse" x1="1747.9797" y1="657.1862" x2="1689.2198" y2="651.9624" gradientTransform="matrix(-1 0 0 1 2296.7664 0)">
				<stop  offset="0" style="stop-color:#8879EA"/>
				<stop  offset="1" style="stop-color:#9E8CEF"/>
			</linearGradient>
			<path class="st36" d="M570.63,609.5c0,0,36.61,29.07,38.85,64.33c2.24,35.26-39.69,28.17-54.49,14.2
				C554.98,688.03,532.53,620.94,570.63,609.5z"/>
			
				<linearGradient id="SVGID_33_" gradientUnits="userSpaceOnUse" x1="1888.4065" y1="739.7617" x2="1989.3901" y2="232.2775" gradientTransform="matrix(-1 0 0 1 2296.7664 0)">
				<stop  offset="0" style="stop-color:#D93DE3"/>
				<stop  offset="1" style="stop-color:#DB63C3"/>
			</linearGradient>
			<path class="st37" d="M105.76,530.09c0,0,2.07,4.6,5.84,11.92c23.42,43.18,69.32,87.6,71.56,89.73c0.06,0.06,0.06,0.06,0.06,0.06
				c146.07,61.35,307.3,91.62,307.3,91.62c75.69-136.98,110.97-305.64,112.74-314.37c0.06-0.24,0.12-0.35,0.12-0.35
				C398.54,292.82,208.64,254.3,202.74,253.18l-0.12-0.06c0,0-0.18,0.29-0.47,0.83c-8.02,13.1-15.81,28.73-23.3,45.72
				c-0.06,0.18-0.18,0.41-0.29,0.65c-21.41,48.96-40.35,109.37-53.51,155.98c-11.15,39.41-18.11,68.9-19.17,73.27
				C105.81,529.92,105.76,530.09,105.76,530.09z"/>
			
				<linearGradient id="SVGID_34_" gradientUnits="userSpaceOnUse" x1="2146.1531" y1="625.3116" x2="2072.9316" y2="257.3432" gradientTransform="matrix(-1 0 0 1 2296.7664 0)">
				<stop  offset="0" style="stop-color:#A242EA"/>
				<stop  offset="1" style="stop-color:#FE117E"/>
			</linearGradient>
			<path class="st38" d="M105.76,530.09c0,0,2.07,4.6,5.84,11.92c11.27,22.06,38.05,68.67,71.56,89.73
				c0.06,0.06,0.06,0.06,0.06,0.06s44.72-192.02,93.92-318.15l-74.39-60.47l-0.12-0.06c0,0-0.18,0.29-0.47,0.83
				c-2.12,3.83-11.27,20.23-23.3,45.72c-0.06,0.18-0.18,0.41-0.29,0.65c-16.22,34.51-37.64,85.48-54.04,144
				c-7.67,27.08-14.22,55.81-18.64,85.24C105.81,529.92,105.76,530.09,105.76,530.09z"/>
			
				<linearGradient id="SVGID_35_" gradientUnits="userSpaceOnUse" x1="1901.0377" y1="367.3557" x2="1886.5311" y2="294.4545" gradientTransform="matrix(-1 0 0 1 2296.7664 0)">
				<stop  offset="0" style="stop-color:#E88AEE"/>
				<stop  offset="1" style="stop-color:#FF6DBA"/>
			</linearGradient>
			<path class="st39" d="M603.36,408.67c0,0-193.59-74.71-326.23-95.05l-74.52-60.47C202.61,253.15,477.94,305.58,603.36,408.67z"/>
			
				<linearGradient id="SVGID_36_" gradientUnits="userSpaceOnUse" x1="1511.6293" y1="388.9458" x2="1500.4962" y2="333.8985" gradientTransform="matrix(-1 0 0 1 2296.7664 0)">
				<stop  offset="0" style="stop-color:#45FFCD"/>
				<stop  offset="1" style="stop-color:#22E0FF"/>
			</linearGradient>
			<path class="st40" d="M814.02,394.35c10.09-0.45,14.44-48.38-3.49-57.02c-17.93-8.64-54.62,14.51-56.19,31.75
				c-0.7,7.7,19.51,5.88,28.32,10.47C793.59,385.25,804.7,394.76,814.02,394.35z"/>
			
				<linearGradient id="SVGID_37_" gradientUnits="userSpaceOnUse" x1="2034.5455" y1="615.8411" x2="2034.5455" y2="435.8987" gradientTransform="matrix(-1 0 0 1 2296.7664 0)">
				<stop  offset="0" style="stop-color:#9D68C2"/>
				<stop  offset="1" style="stop-color:#CCEDFF"/>
			</linearGradient>
			<polygon class="st41" points="260.34,609.5 247.32,615.84 199.38,566.62 155.66,544.4 177.98,531.76 324.82,435.9 368.78,471.95 
							"/>
			
				<linearGradient id="SVGID_38_" gradientUnits="userSpaceOnUse" x1="1297.0143" y1="485.6729" x2="1281.1595" y2="407.2796" gradientTransform="matrix(-1 0 0 1 2296.7664 0)">
				<stop  offset="0" style="stop-color:#45FFCD"/>
				<stop  offset="1" style="stop-color:#22E0FF"/>
			</linearGradient>
			<path class="st42" d="M942.57,440.26c-8.58-15.31,78.48-47.86,110.52-20.29c32.04,27.57,16.13,66.5,1.7,75.44
				c-8.36,5.18-28.73-19.38-57.83-31.51C970.21,452.74,947.26,448.64,942.57,440.26z"/>
			
				<radialGradient id="SVGID_39_" cx="1905.0579" cy="484.8954" r="150.044" gradientTransform="matrix(-1 0 0 1 2296.7664 0)" gradientUnits="userSpaceOnUse">
				<stop  offset="0" style="stop-color:#45FFCD"/>
				<stop  offset="1" style="stop-color:#22E0FF"/>
			</radialGradient>
			<path class="st43" d="M331.06,683.78c0,0,110.43-148.91,134.62-322.8c0,0-43-29.28-116.71-70.85l-13.84-4.12l99.68,65.48
				c0,0-20.57,152.01-117.07,330.21L331.06,683.78z"/>
			
				<linearGradient id="SVGID_40_" gradientUnits="userSpaceOnUse" x1="1376.9063" y1="1216.9509" x2="1376.9063" y2="953.7231" gradientTransform="matrix(-1 0 0 1 2296.7664 0)">
				<stop  offset="0" style="stop-color:#9D68C2"/>
				<stop  offset="1" style="stop-color:#CCEDFF"/>
			</linearGradient>
			<path class="st44" d="M859.86,1033.25c0,0,20.71,170.37,64.24,183.7c-37.12-32.89-60.41-165.1,0-240.75
				c16.95-21.23,44.95-17.52,55.75-15.93C948.83,939.15,883.34,970.6,859.86,1033.25z"/>
			
				<linearGradient id="SVGID_41_" gradientUnits="userSpaceOnUse" x1="1860.9772" y1="734.3036" x2="1916.8574" y2="453.4821" gradientTransform="matrix(-1 0 0 1 2296.7664 0)">
				<stop  offset="0" style="stop-color:#9D68C2"/>
				<stop  offset="1" style="stop-color:#CCEDFF"/>
			</linearGradient>
			<path class="st45" d="M183.21,631.8c146.07,61.35,307.3,91.62,307.3,91.62c75.69-136.98,110.97-305.64,112.74-314.37
				c-2.12,7.49-36.46,127.37-72.74,143.12c-37.46,16.28-109.08,7.55-109.08,7.55s-56.4,42.53-130.91,59.46
				C216.01,636.05,183.21,631.8,183.21,631.8z"/>
			
				<linearGradient id="SVGID_42_" gradientUnits="userSpaceOnUse" x1="1567.4677" y1="839.8672" x2="1567.4677" y2="609.4993" gradientTransform="matrix(-1 0 0 1 2296.7664 0)">
				<stop  offset="0" style="stop-color:#9D68C2"/>
				<stop  offset="1" style="stop-color:#CCEDFF"/>
			</linearGradient>
			<path class="st46" d="M554.93,687.84c0,0.06,0.06,0.12,0.06,0.18C732.32,837.27,902.4,839.87,902.4,839.87
				c19.41-36.93,10.74-124.36-8.85-136.69l-2.89-1.24c1.59,2.48,38.88,60.59,3.54,96.34c-36.1,36.52-224.17-45.96-256.68-103.89
				c-32.51-57.99-21.53-69.67-21.53-69.67l-3.07-1.06l-0.47-0.12l-40-13.39l-1.83-0.65c0,0-0.24,0.12-0.65,0.29
				c-1.18,0.59-4.01,2.12-7.32,4.78c0,0.06-0.06,0.06-0.06,0.06C551.33,623.72,534.4,645.6,554.93,687.84z"/>
			
				<linearGradient id="SVGID_43_" gradientUnits="userSpaceOnUse" x1="1767.2222" y1="701.5137" x2="1813.687" y2="528.5911" gradientTransform="matrix(-1 0 0 1 2296.7664 0)">
				<stop  offset="0" style="stop-color:#CBC1F7"/>
				<stop  offset="1" style="stop-color:#E8DCF7"/>
			</linearGradient>
			<path class="st47" d="M592.49,657.21c4.92,36.46-55.21,50.2-97.68,25.85c-42.48-24.36-60.36-55.65-70.05-78.38
				c-9.69-22.73,3.73-58.5,12.67-63.71s94.93,27.66,109.54,35.02C592.49,598.92,589.57,635.6,592.49,657.21z"/>
			
				<linearGradient id="SVGID_44_" gradientUnits="userSpaceOnUse" x1="1850.8438" y1="527.8379" x2="1711.7844" y2="629.9924" gradientTransform="matrix(-1 0 0 1 2296.7664 0)">
				<stop  offset="0" style="stop-color:#BE9DEA"/>
				<stop  offset="1" style="stop-color:#9E8CEF"/>
			</linearGradient>
			<path class="st48" d="M588.24,625.56c0,0-109.47-26.15-153.33-82.39c0,0,1.87-7.83,20.7-2.41l95.84,35.03
				C551.44,575.8,586.8,601.69,588.24,625.56z"/>
			
				<linearGradient id="SVGID_45_" gradientUnits="userSpaceOnUse" x1="1738.6003" y1="625.704" x2="1769.251" y2="511.6352" gradientTransform="matrix(-1 0 0 1 2296.7664 0)">
				<stop  offset="0" style="stop-color:#CBC1F7"/>
				<stop  offset="1" style="stop-color:#E8DCF7"/>
			</linearGradient>
			<path class="st49" d="M584.14,618.73c0,0-1.01-27.41-9.78-45.17c-21.8-44.15-57.49-59.06-57.49-59.06s-10.51,9.88-12.74,22.74
				c-2.24,12.85,26.38,61.68,26.38,61.68S557.55,619.41,584.14,618.73z"/>
			
				<linearGradient id="SVGID_46_" gradientUnits="userSpaceOnUse" x1="1815.7803" y1="561.5347" x2="1765.783" y2="598.2634" gradientTransform="matrix(-1 0 0 1 2296.7664 0)">
				<stop  offset="0" style="stop-color:#8DA4E5"/>
				<stop  offset="1" style="stop-color:#755CBB"/>
			</linearGradient>
			<path class="st50" d="M511.57,562.58l-40.81,12.87c0,0,29.21,18.37,59.74,23.47L511.57,562.58z"/>
			
				<linearGradient id="SVGID_47_" gradientUnits="userSpaceOnUse" x1="1924.7103" y1="1212.9657" x2="1924.7103" y2="1024.3246" gradientTransform="matrix(-0.6988 -0.7153 -0.7153 0.6988 2430.7151 1102.4611)">
				<stop  offset="0" style="stop-color:#CBC1F7"/>
				<stop  offset="1" style="stop-color:#E8DCF7"/>
			</linearGradient>
			<path class="st51" d="M171.5,525.64l97.06,91.62l114.2-111.97l-11.45-45.06l-37.51-38.4l-42.43-10.09L171.5,525.64z
				 M321.17,452.97c6.79-6.64,17.64-6.51,24.24,0.24c6.64,6.79,6.51,17.64-0.28,24.28c-6.75,6.6-17.6,6.47-24.23-0.33
				C314.29,470.41,314.41,459.56,321.17,452.97z"/>
			
				<radialGradient id="SVGID_48_" cx="1909.3425" cy="395.5914" r="56.6998" gradientTransform="matrix(-1 0 0 1 2296.7664 0)" gradientUnits="userSpaceOnUse">
				<stop  offset="0" style="stop-color:#45FFCD"/>
				<stop  offset="1" style="stop-color:#22E0FF"/>
			</radialGradient>
			<path class="st52" d="M434.81,351.49c0,0-53.52,78.31-85.3,108.79l-9.48-10.77c0,0,47.39-26.29,90.33-99.23l-27.38-19.37
				C402.98,330.91,435.26,348.45,434.81,351.49z"/>
			<path class="st30" d="M927.43,1050.37c6.42-1.45,7.97,55.89,0,61.1C919.47,1116.69,917.51,1052.61,927.43,1050.37z"/>
			<path class="st30" d="M863.21,724.68c-1.12,7.31-47.16-1.07-47.06-10.57C816.26,704.61,864.32,717.37,863.21,724.68z"/>
			<path class="st30" d="M807.88,710.73c1.41-3.12-17.05-8.07-19.84-5.84c-2.79,2.24,4.19,6.71,8.66,8.38
				C801.17,714.95,806.76,713.21,807.88,710.73z"/>
			<path class="st30" d="M561.04,569.74c8.61,1.01-7.37-25.34-12.63-25.34C543.15,544.4,554.7,568.99,561.04,569.74z"/>
			<path class="st30" d="M659.06,1030.42c3.84,1.5-7.15,22.01-13.41,17.71C639.39,1043.83,648.78,1026.4,659.06,1030.42z"/>
			
				<linearGradient id="SVGID_49_" gradientUnits="userSpaceOnUse" x1="1206.2434" y1="795.1596" x2="1235.8698" y2="559.2722" gradientTransform="matrix(-0.7722 -0.6354 -0.6354 0.7722 2503.4595 855.3449)">
				<stop  offset="0" style="stop-color:#BE9DEA"/>
				<stop  offset="1" style="stop-color:#9E8CEF"/>
			</linearGradient>
			<path class="st53" d="M1241.06,531.83c0,0-28.19-3.3-38.7,34.11c0,0,3.58,82.37-48.53,123.64
				c-44.31,35.1-152.6-64.89-152.6-64.89l-4.46,19.47c0,0,84.2,84.58,138.61,89.51c0,0,37.45,0.36,68.01-69.86
				C1233.71,594.16,1241.06,531.83,1241.06,531.83z"/>
			
				<linearGradient id="SVGID_50_" gradientUnits="userSpaceOnUse" x1="1339.6538" y1="605.186" x2="1339.6538" y2="538.2855" gradientTransform="matrix(-0.8973 -0.4415 -0.4415 0.8973 2410.5217 681.127)">
				<stop  offset="0" style="stop-color:#DD1A8F"/>
				<stop  offset="1" style="stop-color:#FE117E"/>
			</linearGradient>
			<path class="st54" d="M1002.21,633.42c0.75,21.18-33.29,15.67-53.89,2.17c-23.12-15.15-53.9-54.56-34.04-74.05
				C934.14,542.04,1000.45,583.77,1002.21,633.42z"/>
			
				<linearGradient id="SVGID_51_" gradientUnits="userSpaceOnUse" x1="1351.8938" y1="788.2775" x2="1351.8938" y2="759.8736" gradientTransform="matrix(-0.7722 -0.6354 -0.6354 0.7722 2503.4595 855.3449)">
				<stop  offset="0" style="stop-color:#D93DE3"/>
				<stop  offset="1" style="stop-color:#FF6DBA"/>
			</linearGradient>
			<path class="st55" d="M998.92,634.5c-2.23,4.03-78.67-57.46-69.43-72.31C938.73,547.34,1016.18,603.36,998.92,634.5z"/>
			
				<linearGradient id="SVGID_52_" gradientUnits="userSpaceOnUse" x1="1161.8882" y1="694.5651" x2="1161.8882" y2="628.1448" gradientTransform="matrix(-0.5585 -0.8295 -0.8295 0.5585 2411.3164 1217.1917)">
				<stop  offset="0" style="stop-color:#CBC1F7"/>
				<stop  offset="1" style="stop-color:#E8DCF7"/>
			</linearGradient>
			<path class="st56" d="M1227.42,583.52c0,0-21.59,78.79-27.04,78.39C1194.92,661.51,1220.35,584.23,1227.42,583.52z"/>
			
				<linearGradient id="SVGID_53_" gradientUnits="userSpaceOnUse" x1="2141.1094" y1="637.2114" x2="2179.217" y2="445.705" gradientTransform="matrix(-1 0 0 1 2296.7664 0)">
				<stop  offset="0" style="stop-color:#9D68C2"/>
				<stop  offset="1" style="stop-color:#CCEDFF"/>
			</linearGradient>
			<path class="st57" d="M105.76,530.09c0,0,2.07,4.6,5.84,11.92c11.27,22.06,38.05,68.67,71.56,89.73
				c-1.65-3.01-52.56-95.21-58.11-175.45c-0.35-4.01-0.47-8.02-0.53-11.98c-7.67,27.08-14.22,55.81-18.64,85.24
				C105.81,529.92,105.76,530.09,105.76,530.09z"/>
			
				<linearGradient id="SVGID_54_" gradientUnits="userSpaceOnUse" x1="1693.5223" y1="331.0937" x2="2094.1594" y2="331.0937" gradientTransform="matrix(-1 0 0 1 2296.7664 0)">
				<stop  offset="0" style="stop-color:#000000"/>
				<stop  offset="1" style="stop-color:#9295BB"/>
			</linearGradient>
			<path class="st58" d="M603.24,409.04c0,0-222.53-85.96-294.81-108.31c-72.28-22.36-105.83-47.58-105.83-47.58l74.52,60.47
				C277.12,313.62,480.57,352.89,603.24,409.04z"/>
		</g>
	</g>
</g>
</svg>
