<svg id="Component_4_2" data-name="Component 4 – 2" xmlns="http://www.w3.org/2000/svg" xmlns:xlink="http://www.w3.org/1999/xlink" width="94.484" height="93.656" viewBox="0 0 94.484 93.656">
  <defs>
    <clipPath id="clip-path">
      <rect id="Rectangle_2618" data-name="Rectangle 2618" width="94.485" height="93.656" fill="none"/>
    </clipPath>
    <clipPath id="clip-path-2">
      <path id="Path_11908" data-name="Path 11908" d="M54.157,0a43.5,43.5,0,0,0-4.582.23c-.288.031-.618.063-1.059.121C30.475,2.709,19.184,19.446,17.843,21.5,6.535,38.773,5.815,66.665,20.614,80.035c6.513,5.884,14.093,7.063,23.073,8.734C49.253,89.805,67.256,92.836,83,82.321a34.627,34.627,0,0,0,6.081-4.936c14.009-14.44,13.974-40.788,2.959-57.8a42.072,42.072,0,0,0-8.28-9.395C73.236,1.37,60.931,0,54.207,0Z" transform="translate(-9.423)" fill="none"/>
    </clipPath>
    <linearGradient id="linear-gradient" x1="0.163" y1="0.852" x2="0.163" y2="0.852" gradientUnits="objectBoundingBox">
      <stop offset="0" stop-color="#dae3fe"/>
      <stop offset="1" stop-color="#e9effd"/>
    </linearGradient>
    <clipPath id="clip-path-3">
      <path id="Path_11909" data-name="Path 11909" d="M68.092,193.343c.121,1.393.3,4.589.469,11.9.285,12.485,7.9,13.94,11.9,16.267s3.8,11.022,3.8,11.022,6.56-18.033,3.5-28c-2.583-8.41-14.9-11.351-18.7-12.065a.832.832,0,0,0-.155-.015.824.824,0,0,0-.817.9" transform="translate(-68.089 -192.447)" fill="none"/>
    </clipPath>
    <linearGradient id="linear-gradient-2" x1="-0.099" y1="2.175" x2="-0.098" y2="2.175" gradientUnits="objectBoundingBox">
      <stop offset="0" stop-color="#4f52ff"/>
      <stop offset="1" stop-color="#4042e2"/>
    </linearGradient>
    <clipPath id="clip-path-4">
      <rect id="Rectangle_2572" data-name="Rectangle 2572" width="94.484" height="93.656" fill="none"/>
    </clipPath>
    <clipPath id="clip-path-5">
      <rect id="Rectangle_2571" data-name="Rectangle 2571" width="13.723" height="34.007" fill="none"/>
    </clipPath>
    <clipPath id="clip-path-6">
      <path id="Path_11913" data-name="Path 11913" d="M223.109,1029.33l-77.8,2.013a2.564,2.564,0,0,0-2.7,2.269l.662,45.748a1.476,1.476,0,0,0,1.472,1.471H224.35a1.476,1.476,0,0,0,1.472-1.471l1.093-46.237a3.71,3.71,0,0,0-3.71-3.8h-.1" transform="translate(-142.608 -1029.329)" fill="none"/>
    </clipPath>
    <linearGradient id="linear-gradient-3" x1="-0.122" y1="0.845" x2="-0.122" y2="0.845" gradientUnits="objectBoundingBox">
      <stop offset="0" stop-color="#09005d"/>
      <stop offset="1" stop-color="#1a0f91"/>
    </linearGradient>
    <clipPath id="clip-path-7">
      <path id="Path_11914" data-name="Path 11914" d="M281.124,1081.03l-74.568,2a3.428,3.428,0,0,0-3.593,3.344l.625,41.531a1.4,1.4,0,0,0,1.393,1.393h76.314a1.4,1.4,0,0,0,1.393-1.393L283.8,1083.7a2.6,2.6,0,0,0-2.6-2.669h-.07" transform="translate(-202.963 -1081.029)" fill="none"/>
    </clipPath>
    <linearGradient id="linear-gradient-4" x1="-0.002" y1="0.907" x2="-0.002" y2="0.907" gradientUnits="objectBoundingBox">
      <stop offset="0" stop-color="#ff928e"/>
      <stop offset="1" stop-color="#fe7062"/>
    </linearGradient>
    <clipPath id="clip-path-9">
      <rect id="Rectangle_2575" data-name="Rectangle 2575" width="74.241" height="43.051" fill="none"/>
    </clipPath>
    <clipPath id="clip-path-10">
      <path id="Path_11918" data-name="Path 11918" d="M20.683,2549.122a2.01,2.01,0,1,0,0,4.02h89.835a2.01,2.01,0,1,0,0-4.02Z" transform="translate(-18.673 -2549.122)" fill="none"/>
    </clipPath>
    <linearGradient id="linear-gradient-5" x1="-3.562" y1="0.56" x2="-3.559" y2="0.56" xlink:href="#linear-gradient-3"/>
    <clipPath id="clip-path-12">
      <path id="Path_11920" data-name="Path 11920" d="M2191.926,215.532a3.057,3.057,0,0,0,2.94,3.3l7.716.281L2192.5,208.287Z" transform="translate(-2191.916 -208.287)" fill="none"/>
    </clipPath>
    <linearGradient id="linear-gradient-6" x1="-4.693" y1="5.824" x2="-4.691" y2="5.824" xlink:href="#linear-gradient-2"/>
    <clipPath id="clip-path-14">
      <rect id="Rectangle_2580" data-name="Rectangle 2580" width="27.392" height="2.716" fill="none"/>
    </clipPath>
    <clipPath id="clip-path-16">
      <rect id="Rectangle_2582" data-name="Rectangle 2582" width="46.206" height="2.563" fill="none"/>
    </clipPath>
    <clipPath id="clip-path-17">
      <rect id="Rectangle_2583" data-name="Rectangle 2583" width="35.966" height="2.738" fill="none"/>
    </clipPath>
    <clipPath id="clip-path-19">
      <rect id="Rectangle_2585" data-name="Rectangle 2585" width="36.137" height="2.555" fill="none"/>
    </clipPath>
    <clipPath id="clip-path-24">
      <rect id="Rectangle_2590" data-name="Rectangle 2590" width="35.68" height="2.591" fill="none"/>
    </clipPath>
    <clipPath id="clip-path-25">
      <rect id="Rectangle_2591" data-name="Rectangle 2591" width="14.465" height="17.286" fill="none"/>
    </clipPath>
    <clipPath id="clip-path-26">
      <path id="Path_11932" data-name="Path 11932" d="M1204.224,2135.91l-8.176,20.744a.441.441,0,0,0,.2.559.364.364,0,0,0,.154.035.39.39,0,0,0,.358-.258l8.175-20.744a.441.441,0,0,0-.2-.559.359.359,0,0,0-.154-.035.39.39,0,0,0-.358.257" transform="translate(-1196.017 -2135.653)" fill="none"/>
    </clipPath>
    <linearGradient id="linear-gradient-7" x1="-1.45" y1="1.314" x2="-1.449" y2="1.314" xlink:href="#linear-gradient-2"/>
    <clipPath id="clip-path-27">
      <path id="Path_11933" data-name="Path 11933" d="M1226.9,2135.686a.441.441,0,0,0-.2.559l8.176,20.744a.391.391,0,0,0,.358.257.362.362,0,0,0,.154-.035.441.441,0,0,0,.2-.559l-8.176-20.744a.391.391,0,0,0-.358-.258.36.36,0,0,0-.154.035" transform="translate(-1226.667 -2135.651)" fill="none"/>
    </clipPath>
    <linearGradient id="linear-gradient-8" x1="-1.495" y1="1.314" x2="-1.494" y2="1.314" xlink:href="#linear-gradient-2"/>
    <clipPath id="clip-path-28">
      <path id="Path_11934" data-name="Path 11934" d="M2235.576,2135.91l-8.176,20.744a.441.441,0,0,0,.2.559.364.364,0,0,0,.154.035.39.39,0,0,0,.358-.258l8.176-20.744a.441.441,0,0,0-.2-.559.36.36,0,0,0-.154-.035.391.391,0,0,0-.358.257" transform="translate(-2227.369 -2135.653)" fill="none"/>
    </clipPath>
    <linearGradient id="linear-gradient-9" x1="-2.964" y1="1.314" x2="-2.963" y2="1.314" xlink:href="#linear-gradient-2"/>
    <clipPath id="clip-path-29">
      <path id="Path_11935" data-name="Path 11935" d="M2258.252,2135.686a.441.441,0,0,0-.2.559l8.176,20.744a.39.39,0,0,0,.358.257.362.362,0,0,0,.154-.035.441.441,0,0,0,.2-.559l-8.176-20.744a.39.39,0,0,0-.358-.258.36.36,0,0,0-.154.035" transform="translate(-2258.016 -2135.651)" fill="none"/>
    </clipPath>
    <linearGradient id="linear-gradient-10" x1="-3.009" y1="1.314" x2="-3.008" y2="1.314" xlink:href="#linear-gradient-2"/>
    <clipPath id="clip-path-30">
      <rect id="Rectangle_2598" data-name="Rectangle 2598" width="0.967" height="10.453" fill="none"/>
    </clipPath>
    <linearGradient id="linear-gradient-11" x1="-6.846" y1="1.976" x2="-6.843" y2="1.976" xlink:href="#linear-gradient-2"/>
    <clipPath id="clip-path-31">
      <path id="Path_11936" data-name="Path 11936" d="M1965.887,2658.511a.584.584,0,0,0-.584.584v.045h8.466a.629.629,0,0,0-.629-.629Z" transform="translate(-1965.303 -2658.511)" fill="none"/>
    </clipPath>
    <linearGradient id="linear-gradient-12" x1="-14.611" y1="0.972" x2="-14.604" y2="0.972" xlink:href="#linear-gradient-2"/>
    <clipPath id="clip-path-32">
      <path id="Rectangle_2601" data-name="Rectangle 2601" d="M1.509,0H9.135a1.509,1.509,0,0,1,1.509,1.509v0A1.509,1.509,0,0,1,9.135,3.019H1.509A1.509,1.509,0,0,1,0,1.509v0A1.509,1.509,0,0,1,1.509,0Z" fill="none"/>
    </clipPath>
    <linearGradient id="linear-gradient-13" x1="-8.547" y1="1.875" x2="-8.543" y2="1.875" xlink:href="#linear-gradient-2"/>
    <clipPath id="clip-path-33">
      <path id="Path_11937" data-name="Path 11937" d="M1778.486,2156.114a.8.8,0,0,0-.355.769,34.123,34.123,0,0,0,3.61,11.332,1.22,1.22,0,0,1,.117.837l-.455,2.12-.845.792h2.176l1.449-3.92-.619-.2a1.172,1.172,0,0,1-.819-1.1l-.073-4.206a4.785,4.785,0,0,0-1.149-3.167l3.475-.169-3.46-4.4a8.413,8.413,0,0,0-3.051,1.3" transform="translate(-1778.124 -2154.812)" fill="none"/>
    </clipPath>
    <linearGradient id="linear-gradient-14" x1="-5.357" y1="1.176" x2="-5.353" y2="1.176" gradientUnits="objectBoundingBox">
      <stop offset="0" stop-color="#febbba"/>
      <stop offset="1" stop-color="#ff928e"/>
    </linearGradient>
    <clipPath id="clip-path-34">
      <path id="Path_11938" data-name="Path 11938" d="M1828.574,2540.852s-.548,3.363-1.127,3.74a2.311,2.311,0,0,1-1.619.038,3.41,3.41,0,0,0-1.109.721c-.2.259,2.133.6,3.31.034,0,0,1.632-2.84,1.632-4.3,0,0-.1-.24-.82-.24-.081,0-.17,0-.268.01" transform="translate(-1824.708 -2540.842)" fill="none"/>
    </clipPath>
    <linearGradient id="linear-gradient-15" x1="-11.269" y1="1.483" x2="-11.263" y2="1.483" xlink:href="#linear-gradient-2"/>
    <clipPath id="clip-path-35">
      <path id="Path_11939" data-name="Path 11939" d="M1547.865,2172.1c-2.036,2.021-5.36,13.348-5.36,13.348l-3.552,2.131a9.218,9.218,0,0,0,5.23-.314l-.573-1.817s5.466-6.751,5.846-8.309a8.6,8.6,0,0,0,.259-2.69s3.723.416,3.741.448l-1.86-4.088Z" transform="translate(-1538.953 -2170.811)" fill="none"/>
    </clipPath>
    <linearGradient id="linear-gradient-16" x1="-2.353" y1="1.04" x2="-2.351" y2="1.04" xlink:href="#linear-gradient-14"/>
    <clipPath id="clip-path-36">
      <path id="Path_11940" data-name="Path 11940" d="M1808.884,2097.422c-.972.377-4.708,1.71-4.708,1.71l5.127,4.382s6.008,0,8.258-.1,3.014-.689,2.838-2.144-2.321-4.645-2.321-4.645-8.223.416-9.195.793" transform="translate(-1804.176 -2096.629)" fill="none"/>
    </clipPath>
    <linearGradient id="linear-gradient-17" x1="-3.712" y1="3.327" x2="-3.71" y2="3.327" xlink:href="#linear-gradient-3"/>
    <clipPath id="clip-path-37">
      <path id="Path_11941" data-name="Path 11941" d="M1511.064,2641.174a.179.179,0,0,1-.118-.32l.11-.084c-1.494.716-1.77,1.345-1.77,1.345,1.327.393,6.215-.473,6.215-.473a1.05,1.05,0,0,0-.2-1.263,13.747,13.747,0,0,1-4.237.8" transform="translate(-1509.287 -2640.378)" fill="none"/>
    </clipPath>
    <linearGradient id="linear-gradient-18" x1="-20.722" y1="1.018" x2="-20.709" y2="1.018" xlink:href="#linear-gradient-2"/>
    <clipPath id="clip-path-38">
      <path id="Path_11942" data-name="Path 11942" d="M1961.15,1540.211a.137.137,0,0,1-.225-.063c-.2-.739-1.436-.587-1.77-.531a.138.138,0,0,0-.109.1l-1.3,4.215a.139.139,0,0,0,.021.123l3.249,4.377a.139.139,0,0,0,.1.056l5.3.271a.135.135,0,0,0,.062-.011c.309-.134,2.931-1.322,2.507-2.751a1.464,1.464,0,0,0-1.284-1.189.138.138,0,0,1-.073-.245,1.881,1.881,0,0,0,.388-2.875c-1.142-1.534-2.925-.6-3.7-.082a.138.138,0,0,1-.208-.157,1.355,1.355,0,0,0-.652-1.774,1.7,1.7,0,0,0-.716-.159,2.528,2.528,0,0,0-1.593.7" transform="translate(-1957.741 -1539.512)" fill="none"/>
    </clipPath>
    <linearGradient id="linear-gradient-19" x1="-4.38" y1="2.986" x2="-4.378" y2="2.986" xlink:href="#linear-gradient-3"/>
    <clipPath id="clip-path-39">
      <path id="Path_11943" data-name="Path 11943" d="M1914.751,1741.848a41.519,41.519,0,0,0-1.65,4.155,3.342,3.342,0,0,0,.566,3.008,48.985,48.985,0,0,0,3.727,3.954l5.227-.54c-.087-1.33-2.547-4.58-2.547-4.58a28.417,28.417,0,0,1,2.861,3.949l2.432-.757a21.475,21.475,0,0,0-7.676-9.635h-.047c-.368,0-2.764.017-2.893.448" transform="translate(-1912.962 -1741.4)" fill="none"/>
    </clipPath>
    <linearGradient id="linear-gradient-20" x1="-3.728" y1="2.218" x2="-3.726" y2="2.218" xlink:href="#linear-gradient-4"/>
    <clipPath id="clip-path-40">
      <path id="Path_11944" data-name="Path 11944" d="M1955.937,1666.477c.029.1.76,2.52.817,2.571a4.09,4.09,0,0,0,2.331-.364l-1.234-2.584Z" transform="translate(-1955.937 -1666.1)" fill="none"/>
    </clipPath>
    <linearGradient id="linear-gradient-21" x1="-18.349" y1="10.671" x2="-18.34" y2="10.671" xlink:href="#linear-gradient-14"/>
    <clipPath id="clip-path-41">
      <path id="Path_11945" data-name="Path 11945" d="M1886.913,1557.421a4.937,4.937,0,0,0,0,3.314c.606,2.018,1.692,2.226,2.4,1.754a3.939,3.939,0,0,0,1.8-3.132c.121-1.3-1.679-2.584-3.006-2.585a1.241,1.241,0,0,0-1.188.648" transform="translate(-1886.641 -1556.773)" fill="none"/>
    </clipPath>
    <linearGradient id="linear-gradient-22" x1="-11.016" y1="6.098" x2="-11.01" y2="6.098" xlink:href="#linear-gradient-14"/>
    <clipPath id="clip-path-42">
      <path id="Path_11946" data-name="Path 11946" d="M1849.677,1494.022c-.616,1.544,1.093,2.089,1.093,2.089l.162-.691c1.863-1.627,2.985,1.114,2.985,1.114l.169-.044s.014-.792.509-.59.667,1.253.667,1.253,1.051.52,1.194-.9a4.032,4.032,0,0,0-2.315-3.929,2.818,2.818,0,0,0-1.447-.4,3.4,3.4,0,0,0-3.016,2.1" transform="translate(-1849.543 -1491.921)" fill="none"/>
    </clipPath>
    <linearGradient id="linear-gradient-23" x1="-6.565" y1="4.776" x2="-6.561" y2="4.776" xlink:href="#linear-gradient-3"/>
    <clipPath id="clip-path-43">
      <path id="Path_11947" data-name="Path 11947" d="M1986.269,1587.657c-.882.022-.3,1.428-.3,1.428l.586.424c.19-.5.587-1.853-.268-1.853h-.021" transform="translate(-1985.781 -1587.657)" fill="none"/>
    </clipPath>
    <linearGradient id="linear-gradient-24" x1="-33.406" y1="19.396" x2="-33.389" y2="19.396" xlink:href="#linear-gradient-14"/>
    <clipPath id="clip-path-44">
      <path id="Path_11948" data-name="Path 11948" d="M1903.3,2027.971l-1.446.392a12.528,12.528,0,0,1-3.973,0l-2.539-1.073-1.835,1.769,1.82.732s10.179.319,10.609.13a5.758,5.758,0,0,0,.826-.514.873.873,0,0,0,.319-1l-.513-1.45Z" transform="translate(-1893.511 -2026.954)" fill="none"/>
    </clipPath>
    <linearGradient id="linear-gradient-25" x1="-4.662" y1="8.003" x2="-4.66" y2="8.003" xlink:href="#linear-gradient-14"/>
    <clipPath id="clip-path-45">
      <path id="Path_11949" data-name="Path 11949" d="M1769.012,2085.964a.476.476,0,0,0,.476.477l10.645.012h.024a.476.476,0,0,0-.023-.952l-10.645-.011h-.008a.474.474,0,0,0-.469.476" transform="translate(-1769.012 -2085.488)" fill="none"/>
    </clipPath>
    <linearGradient id="linear-gradient-26" x1="-5.285" y1="5.533" x2="-5.282" y2="5.533" xlink:href="#linear-gradient-3"/>
    <clipPath id="clip-path-46">
      <path id="Path_11950" data-name="Path 11950" d="M1479.226,1827.626a.708.708,0,0,0-.658.968l3.178,8.042a1.027,1.027,0,0,0,.955.649h11.017l-4.1-8.69a1.689,1.689,0,0,0-1.528-.969Z" transform="translate(-1478.517 -1827.626)" fill="none"/>
    </clipPath>
    <linearGradient id="linear-gradient-27" x1="-2.771" y1="2.028" x2="-2.769" y2="2.028" xlink:href="#linear-gradient-3"/>
    <clipPath id="clip-path-48">
      <path id="Path_11952" data-name="Path 11952" d="M1089.9,2111.06a.57.57,0,0,0-.46.219.42.42,0,0,0-.036.454l.52.977a.741.741,0,0,0,.66.367h46.931a.536.536,0,0,0,.541-.387l.254-1.138a.373.373,0,0,0-.1-.34.506.506,0,0,0-.366-.15Z" transform="translate(-1089.356 -2111.06)" fill="none"/>
    </clipPath>
    <linearGradient id="linear-gradient-28" x1="-4.619" y1="0.943" x2="-4.616" y2="0.943" xlink:href="#linear-gradient-2"/>
  </defs>
  <g id="Group_3348" data-name="Group 3348" clip-path="url(#clip-path)">
    <g id="Group_3241" data-name="Group 3241" transform="translate(0.318)">
      <g id="Group_3240" data-name="Group 3240" clip-path="url(#clip-path-2)">
        <rect id="Rectangle_2569" data-name="Rectangle 2569" width="134.464" height="134.268" transform="translate(-49.936 43.52) rotate(-43.21)" fill="url(#linear-gradient)"/>
      </g>
    </g>
    <g id="Group_3243" data-name="Group 3243" transform="translate(2.297 6.494)">
      <g id="Group_3242" data-name="Group 3242" clip-path="url(#clip-path-3)">
        <rect id="Rectangle_2570" data-name="Rectangle 2570" width="22.774" height="40.083" transform="translate(-0.039 0)" fill="url(#linear-gradient-2)"/>
      </g>
    </g>
    <g id="Group_3248" data-name="Group 3248">
      <g id="Group_3247" data-name="Group 3247" clip-path="url(#clip-path-4)">
        <g id="Group_3246" data-name="Group 3246" transform="translate(5.937 9.942)" opacity="0.7">
          <g id="Group_3245" data-name="Group 3245">
            <g id="Group_3244" data-name="Group 3244" clip-path="url(#clip-path-5)">
              <path id="Path_11910" data-name="Path 11910" d="M176.23,294.685a47.852,47.852,0,0,1,11.543,16.856,30.9,30.9,0,0,1,1.711,7.478,34.45,34.45,0,0,1-.265,9.407.278.278,0,0,1-.325.221.282.282,0,0,1-.223-.32,38.141,38.141,0,0,0-.883-13.736c-1.515-5.624-4.894-11.077-8.389-15.7l-.36-.455c-2.708-3.477-3.278-3.5-3.025-3.745a.158.158,0,0,1,.214,0" transform="translate(-175.961 -294.645)" fill="#7d97f4"/>
            </g>
          </g>
        </g>
        <path id="Path_11911" data-name="Path 11911" d="M24.908,911.721c.542.266-5.129-6.866-6.906-18.067-.837-5.278-.848-11.891-3.855-14.439-2.5-2.121-11.017-.782-13.8-.273a.418.418,0,0,0-.194.731c1.336,1.122,4.194,3.769,4.939,6.436.982,3.516,4.324,5.752,7.317,6.357s4.657,1.193,6.115,5.978,4.848,12.521,6.388,13.276" transform="translate(0 -848.428)" fill="#7d97f4"/>
        <path id="Path_11912" data-name="Path 11912" d="M124.037,948.353c3.555.149,7.37,1.77,9.307,4.812l.183.29a68.211,68.211,0,0,1,4.143,9.529.1.1,0,0,1-.061.121.1.1,0,0,1-.119-.057c-.926-2.266-2.255-5.138-3.314-7.286-1.136-2.344-1.93-3.931-4.52-5.452a14.421,14.421,0,0,0-5.629-1.8.077.077,0,0,1,.011-.153" transform="translate(-119.774 -916.354)" fill="#91b3fa"/>
      </g>
    </g>
    <g id="Group_3250" data-name="Group 3250" transform="translate(4.812 34.732)">
      <g id="Group_3249" data-name="Group 3249" clip-path="url(#clip-path-6)">
        <rect id="Rectangle_2573" data-name="Rectangle 2573" width="75.528" height="96.291" transform="translate(-15.451 46.353) rotate(-71.565)" fill="url(#linear-gradient-3)"/>
      </g>
    </g>
    <g id="Group_3252" data-name="Group 3252" transform="translate(6.848 36.476)">
      <g id="Group_3251" data-name="Group 3251" clip-path="url(#clip-path-7)">
        <rect id="Rectangle_2574" data-name="Rectangle 2574" width="94.107" height="81.282" transform="translate(-20.395 11.231) rotate(-28.839)" fill="url(#linear-gradient-4)"/>
      </g>
    </g>
    <g id="Group_3257" data-name="Group 3257">
      <g id="Group_3256" data-name="Group 3256" clip-path="url(#clip-path-4)">
        <path id="Path_11915" data-name="Path 11915" d="M240.751,1779.424a.132.132,0,0,1-.131-.13l-.049-3.368a.131.131,0,0,1,.263,0l.049,3.368a.131.131,0,0,1-.13.133Z" transform="translate(-232.453 -1715.874)" fill="#fff"/>
        <path id="Path_11916" data-name="Path 11916" d="M233.151,1163.625a.131.131,0,0,1-.131-.13l-.189-12.9a2.75,2.75,0,0,1,.795-2.062,3.773,3.773,0,0,1,2.5-.863l23.811-.639a.129.129,0,0,1,.135.128.131.131,0,0,1-.128.135l-23.819.639a3.5,3.5,0,0,0-2.318.79,2.5,2.5,0,0,0-.714,1.87l.189,12.9a.131.131,0,0,1-.129.133Z" transform="translate(-224.974 -1108.329)" fill="#fff"/>
        <g id="Group_3255" data-name="Group 3255" transform="translate(10.682 39.597)" opacity="0.23">
          <g id="Group_3254" data-name="Group 3254">
            <g id="Group_3253" data-name="Group 3253" clip-path="url(#clip-path-9)">
              <path id="Path_11917" data-name="Path 11917" d="M316.731,1214.964c.08-3.432.05-33.829-.147-36.454s3.892-3.118,10.169-3.413,59.24-1.465,60.6-1.576c3.065-.249,3.7,4.333,3.393,14.279-.23,7.472-.612,19.782-.788,25.443a3.124,3.124,0,0,1-3.116,3.028c-12.745.035-61.592.175-64.844.272-3.742.111-5.3-.218-5.269-1.579" transform="translate(-316.577 -1173.512)" fill="#fff"/>
            </g>
          </g>
        </g>
      </g>
    </g>
    <g id="Group_3259" data-name="Group 3259" transform="translate(0.63 86.013)">
      <g id="Group_3258" data-name="Group 3258" clip-path="url(#clip-path-10)">
        <rect id="Rectangle_2577" data-name="Rectangle 2577" width="11.709" height="93.868" transform="matrix(0.082, -0.997, 0.997, 0.082, -0.329, 3.993)" fill="url(#linear-gradient-5)"/>
      </g>
    </g>
    <g id="Group_3261" data-name="Group 3261">
      <g id="Group_3260" data-name="Group 3260" clip-path="url(#clip-path-4)">
        <path id="Path_11919" data-name="Path 11919" d="M596.206,195.96l-53.4-.327a3.057,3.057,0,0,0-3.072,3.208l3.674,75.871h59.426l3.3-67.787Z" transform="translate(-521.517 -189.032)" fill="#91b3fa"/>
      </g>
    </g>
    <g id="Group_3263" data-name="Group 3263" transform="translate(73.96 7.028)">
      <g id="Group_3262" data-name="Group 3262" clip-path="url(#clip-path-12)">
        <rect id="Rectangle_2579" data-name="Rectangle 2579" width="15.257" height="15.255" transform="translate(-5.499 6.058) rotate(-48.438)" fill="url(#linear-gradient-6)"/>
      </g>
    </g>
    <g id="Group_3301" data-name="Group 3301">
      <g id="Group_3300" data-name="Group 3300" clip-path="url(#clip-path-4)">
        <g id="Group_3266" data-name="Group 3266" transform="translate(47.871 21.332)" opacity="0.78">
          <g id="Group_3265" data-name="Group 3265">
            <g id="Group_3264" data-name="Group 3264" clip-path="url(#clip-path-14)">
              <path id="Path_11921" data-name="Path 11921" d="M1419.7,632.38c4.389-.021,21.238-.134,25.493-.162a1.085,1.085,0,0,1,.938,1.232,1.109,1.109,0,0,1-.955,1.166l-25.482.318a1.046,1.046,0,0,1-.94-1.077l-.011-.156a1.143,1.143,0,0,1,.957-1.321" transform="translate(-1418.739 -632.219)" fill="#fff"/>
            </g>
          </g>
        </g>
        <g id="Group_3269" data-name="Group 3269" transform="translate(47.656 26.654)" opacity="0.78">
          <g id="Group_3268" data-name="Group 3268">
            <g id="Group_3267" data-name="Group 3267" clip-path="url(#clip-path-14)">
              <path id="Path_11922" data-name="Path 11922" d="M1413.311,790.1c4.389-.021,21.238-.134,25.493-.162a1.086,1.086,0,0,1,.938,1.232,1.109,1.109,0,0,1-.955,1.166l-25.482.318a1.046,1.046,0,0,1-.94-1.077l-.011-.156a1.143,1.143,0,0,1,.957-1.321" transform="translate(-1412.35 -789.941)" fill="#fff"/>
            </g>
          </g>
        </g>
        <g id="Group_3272" data-name="Group 3272" transform="translate(27.968 34.309)" opacity="0.78">
          <g id="Group_3271" data-name="Group 3271">
            <g id="Group_3270" data-name="Group 3270" clip-path="url(#clip-path-16)">
              <path id="Path_11923" data-name="Path 11923" d="M830.451,1016.8c7.4.005,35.825,0,43-.008.905,0,1.64.561,1.624,1.238a1.428,1.428,0,0,1-1.571,1.161l-42.978.164a1.535,1.535,0,0,1-1.623-1.083l-.023-.156c-.1-.706.623-1.316,1.57-1.316" transform="translate(-828.871 -1016.797)" fill="#fff"/>
            </g>
          </g>
        </g>
        <g id="Group_3275" data-name="Group 3275" transform="translate(27.968 39.718)" opacity="0.78">
          <g id="Group_3274" data-name="Group 3274">
            <g id="Group_3273" data-name="Group 3273" clip-path="url(#clip-path-17)">
              <path id="Path_11924" data-name="Path 11924" d="M830.106,1177.307c5.763-.025,27.886-.151,33.473-.183a1.2,1.2,0,1,1,.024,2.4l-33.455.339a1.234,1.234,0,0,1-1.256-1.077l-.017-.156a1.214,1.214,0,0,1,1.231-1.322" transform="translate(-828.868 -1177.124)" fill="#fff"/>
            </g>
          </g>
        </g>
        <g id="Group_3278" data-name="Group 3278" transform="translate(27.895 47.207)" opacity="0.78">
          <g id="Group_3277" data-name="Group 3277">
            <g id="Group_3276" data-name="Group 3276" clip-path="url(#clip-path-16)">
              <path id="Path_11925" data-name="Path 11925" d="M828.293,1399.064c7.4.005,35.825-.005,43-.008.905,0,1.64.561,1.624,1.238a1.428,1.428,0,0,1-1.571,1.161l-42.978.164a1.535,1.535,0,0,1-1.623-1.083l-.023-.156c-.1-.705.623-1.316,1.57-1.316" transform="translate(-826.713 -1399.056)" fill="#fff"/>
            </g>
          </g>
        </g>
        <g id="Group_3281" data-name="Group 3281" transform="translate(27.58 52.893)" opacity="0.78">
          <g id="Group_3280" data-name="Group 3280">
            <g id="Group_3279" data-name="Group 3279" clip-path="url(#clip-path-19)">
              <path id="Path_11926" data-name="Path 11926" d="M818.626,1567.566c5.79.01,28.018.021,33.631.023a1.2,1.2,0,1,1,.01,2.4l-33.614.133a1.238,1.238,0,0,1-1.256-1.084l-.016-.156a1.216,1.216,0,0,1,1.245-1.314" transform="translate(-817.375 -1567.566)" fill="#fff"/>
            </g>
          </g>
        </g>
        <g id="Group_3284" data-name="Group 3284" transform="translate(27.53 60.368)" opacity="0.78">
          <g id="Group_3283" data-name="Group 3283">
            <g id="Group_3282" data-name="Group 3282" clip-path="url(#clip-path-16)">
              <path id="Path_11927" data-name="Path 11927" d="M817.475,1789.125c7.4.005,35.825,0,43-.008.905,0,1.64.561,1.624,1.238a1.428,1.428,0,0,1-1.571,1.161l-42.978.164a1.535,1.535,0,0,1-1.623-1.083l-.023-.156c-.1-.706.623-1.316,1.57-1.316" transform="translate(-815.895 -1789.117)" fill="#fff"/>
            </g>
          </g>
        </g>
        <g id="Group_3290" data-name="Group 3290" transform="translate(27.412 65.987)" opacity="0.74">
          <g id="Group_3289" data-name="Group 3289">
            <g id="Group_3288" data-name="Group 3288" clip-path="url(#clip-path-19)">
              <g id="Group_3287" data-name="Group 3287" opacity="0.78">
                <g id="Group_3286" data-name="Group 3286">
                  <g id="Group_3285" data-name="Group 3285" clip-path="url(#clip-path-19)">
                    <path id="Path_11928" data-name="Path 11928" d="M813.647,1955.635c5.79.01,28.018.021,33.631.023a1.2,1.2,0,1,1,.01,2.4l-33.614.133a1.238,1.238,0,0,1-1.256-1.084l-.016-.156a1.216,1.216,0,0,1,1.245-1.314" transform="translate(-812.396 -1955.635)" fill="#fff"/>
                  </g>
                </g>
              </g>
            </g>
          </g>
        </g>
        <g id="Group_3293" data-name="Group 3293" transform="translate(27.968 73.377)" opacity="0.48">
          <g id="Group_3292" data-name="Group 3292">
            <g id="Group_3291" data-name="Group 3291" clip-path="url(#clip-path-16)">
              <path id="Path_11929" data-name="Path 11929" d="M830.451,2174.652c7.4.005,35.825,0,43-.007.905,0,1.64.561,1.624,1.238a1.428,1.428,0,0,1-1.571,1.161l-42.978.164a1.535,1.535,0,0,1-1.623-1.083l-.023-.156c-.1-.706.623-1.316,1.57-1.316" transform="translate(-828.871 -2174.645)" fill="#fff"/>
            </g>
          </g>
        </g>
        <g id="Group_3296" data-name="Group 3296" transform="translate(27.895 79.567)" opacity="0.36">
          <g id="Group_3295" data-name="Group 3295">
            <g id="Group_3294" data-name="Group 3294" clip-path="url(#clip-path-24)">
              <path id="Path_11930" data-name="Path 11930" d="M827.948,2358.145c5.717,0,27.664-.029,33.206-.036a1.2,1.2,0,1,1,.013,2.4l-33.19.192a1.227,1.227,0,0,1-1.241-1.082l-.016-.156a1.211,1.211,0,0,1,1.228-1.316" transform="translate(-826.714 -2358.109)" fill="#fff"/>
            </g>
          </g>
        </g>
        <g id="Group_3299" data-name="Group 3299" transform="translate(30.441 11.786)" opacity="0.78">
          <g id="Group_3298" data-name="Group 3298">
            <g id="Group_3297" data-name="Group 3297" clip-path="url(#clip-path-25)">
              <path id="Path_11931" data-name="Path 11931" d="M906.259,361.138l-1.8,5.437h-2.308l5.873-17.286h2.693l5.9,17.286h-2.385l-1.847-5.437Zm5.668-1.744-1.693-4.975c-.385-1.128-.641-2.154-.9-3.154h-.051c-.256,1.026-.539,2.077-.872,3.129l-1.693,5Z" transform="translate(-902.156 -349.289)" fill="#fff"/>
            </g>
          </g>
        </g>
      </g>
    </g>
    <g id="Group_3303" data-name="Group 3303" transform="translate(40.356 72.061)">
      <g id="Group_3302" data-name="Group 3302" clip-path="url(#clip-path-26)">
        <rect id="Rectangle_2593" data-name="Rectangle 2593" width="22.989" height="13.273" transform="matrix(0.204, -0.979, 0.979, 0.204, -4.362, 20.698)" fill="url(#linear-gradient-7)"/>
      </g>
    </g>
    <g id="Group_3305" data-name="Group 3305" transform="translate(41.39 72.061)">
      <g id="Group_3304" data-name="Group 3304" clip-path="url(#clip-path-27)">
        <rect id="Rectangle_2594" data-name="Rectangle 2594" width="22.989" height="13.273" transform="translate(-4.362 20.698) rotate(-78.24)" fill="url(#linear-gradient-8)"/>
      </g>
    </g>
    <g id="Group_3307" data-name="Group 3307" transform="translate(75.156 72.061)">
      <g id="Group_3306" data-name="Group 3306" clip-path="url(#clip-path-28)">
        <rect id="Rectangle_2595" data-name="Rectangle 2595" width="22.989" height="13.273" transform="translate(-4.362 20.698) rotate(-78.24)" fill="url(#linear-gradient-9)"/>
      </g>
    </g>
    <g id="Group_3309" data-name="Group 3309" transform="translate(76.19 72.061)">
      <g id="Group_3308" data-name="Group 3308" clip-path="url(#clip-path-29)">
        <rect id="Rectangle_2596" data-name="Rectangle 2596" width="22.989" height="13.273" transform="matrix(0.204, -0.979, 0.979, 0.204, -4.362, 20.698)" fill="url(#linear-gradient-10)"/>
      </g>
    </g>
    <g id="Group_3311" data-name="Group 3311" transform="translate(70.063 79.678)">
      <g id="Group_3310" data-name="Group 3310" clip-path="url(#clip-path-30)">
        <rect id="Rectangle_2597" data-name="Rectangle 2597" width="9.603" height="5.93" transform="matrix(0.486, -0.874, 0.874, 0.486, -4.443, 7.979)" fill="url(#linear-gradient-11)"/>
      </g>
    </g>
    <g id="Group_3313" data-name="Group 3313" transform="translate(66.313 89.704)">
      <g id="Group_3312" data-name="Group 3312" clip-path="url(#clip-path-31)">
        <rect id="Rectangle_2599" data-name="Rectangle 2599" width="4.668" height="7.703" transform="matrix(0.486, -0.874, 0.874, 0.486, -0.267, 0.48)" fill="url(#linear-gradient-12)"/>
      </g>
    </g>
    <g id="Group_3315" data-name="Group 3315" transform="translate(65.391 77.336)">
      <g id="Group_3314" data-name="Group 3314" clip-path="url(#clip-path-32)">
        <rect id="Rectangle_2600" data-name="Rectangle 2600" width="7.816" height="10.769" transform="translate(-1.283 2.304) rotate(-60.89)" fill="url(#linear-gradient-13)"/>
      </g>
    </g>
    <g id="Group_3317" data-name="Group 3317" transform="translate(59.998 72.708)">
      <g id="Group_3316" data-name="Group 3316" clip-path="url(#clip-path-33)">
        <rect id="Rectangle_2602" data-name="Rectangle 2602" width="10.829" height="18.309" transform="translate(-4.037 0.993) rotate(-13.921)" fill="url(#linear-gradient-14)"/>
      </g>
    </g>
    <g id="Group_3319" data-name="Group 3319" transform="translate(61.569 85.733)">
      <g id="Group_3318" data-name="Group 3318" clip-path="url(#clip-path-34)">
        <rect id="Rectangle_2603" data-name="Rectangle 2603" width="5.434" height="5.463" transform="translate(-0.518 5.089) rotate(-86.269)" fill="url(#linear-gradient-15)"/>
      </g>
    </g>
    <g id="Group_3321" data-name="Group 3321" transform="translate(51.927 73.248)">
      <g id="Group_3320" data-name="Group 3320" clip-path="url(#clip-path-35)">
        <rect id="Rectangle_2604" data-name="Rectangle 2604" width="20.745" height="21.9" transform="translate(-6.977 3.582) rotate(-27.175)" fill="url(#linear-gradient-16)"/>
      </g>
    </g>
    <g id="Group_3323" data-name="Group 3323" transform="translate(60.877 70.745)">
      <g id="Group_3322" data-name="Group 3322" clip-path="url(#clip-path-36)">
        <rect id="Rectangle_2605" data-name="Rectangle 2605" width="16.4" height="6.887" transform="translate(0)" fill="url(#linear-gradient-17)"/>
      </g>
    </g>
    <g id="Group_3325" data-name="Group 3325" transform="translate(50.926 89.092)">
      <g id="Group_3324" data-name="Group 3324" clip-path="url(#clip-path-37)">
        <rect id="Rectangle_2606" data-name="Rectangle 2606" width="2.556" height="6.756" transform="translate(-0.138 2.12) rotate(-86.269)" fill="url(#linear-gradient-18)"/>
      </g>
    </g>
    <g id="Group_3327" data-name="Group 3327" transform="translate(66.058 51.946)">
      <g id="Group_3326" data-name="Group 3326" clip-path="url(#clip-path-38)">
        <rect id="Rectangle_2607" data-name="Rectangle 2607" width="14.731" height="14.939" transform="translate(-4.643 5.159) rotate(-48.617)" fill="url(#linear-gradient-19)"/>
      </g>
    </g>
    <g id="Group_3329" data-name="Group 3329" transform="translate(64.547 58.758)">
      <g id="Group_3328" data-name="Group 3328" clip-path="url(#clip-path-39)">
        <rect id="Rectangle_2608" data-name="Rectangle 2608" width="16.716" height="16.951" transform="matrix(0.581, -0.814, 0.814, 0.581, -5.635, 7.664)" fill="url(#linear-gradient-20)"/>
      </g>
    </g>
    <g id="Group_3331" data-name="Group 3331" transform="translate(65.997 56.218)">
      <g id="Group_3330" data-name="Group 3330" clip-path="url(#clip-path-40)">
        <rect id="Rectangle_2609" data-name="Rectangle 2609" width="3.585" height="3.529" transform="translate(-0.469 0.073) rotate(-8.858)" fill="url(#linear-gradient-21)"/>
      </g>
    </g>
    <g id="Group_3333" data-name="Group 3333" transform="translate(63.659 52.529)">
      <g id="Group_3332" data-name="Group 3332" clip-path="url(#clip-path-41)">
        <rect id="Rectangle_2610" data-name="Rectangle 2610" width="5.712" height="6.794" transform="matrix(0.991, -0.134, 0.134, 0.991, -1.161, 0.111)" fill="url(#linear-gradient-22)"/>
      </g>
    </g>
    <g id="Group_3335" data-name="Group 3335" transform="translate(62.407 50.34)">
      <g id="Group_3334" data-name="Group 3334" clip-path="url(#clip-path-42)">
        <rect id="Rectangle_2611" data-name="Rectangle 2611" width="9.299" height="9.458" transform="matrix(0.661, -0.75, 0.75, 0.661, -3.335, 3.238)" fill="url(#linear-gradient-23)"/>
      </g>
    </g>
    <g id="Group_3337" data-name="Group 3337" transform="translate(67.004 53.571)">
      <g id="Group_3336" data-name="Group 3336" clip-path="url(#clip-path-43)">
        <rect id="Rectangle_2612" data-name="Rectangle 2612" width="1.99" height="2.072" transform="matrix(0.991, -0.134, 0.134, 0.991, -0.641, 0.033)" fill="url(#linear-gradient-24)"/>
      </g>
    </g>
    <g id="Group_3339" data-name="Group 3339" transform="translate(63.891 68.394)">
      <g id="Group_3338" data-name="Group 3338" clip-path="url(#clip-path-44)">
        <rect id="Rectangle_2613" data-name="Rectangle 2613" width="13.705" height="3.156" transform="translate(0 0)" fill="url(#linear-gradient-25)"/>
      </g>
    </g>
    <g id="Group_3341" data-name="Group 3341" transform="translate(59.69 70.369)">
      <g id="Group_3340" data-name="Group 3340" clip-path="url(#clip-path-45)">
        <rect id="Rectangle_2614" data-name="Rectangle 2614" width="11.321" height="4.531" transform="translate(-0.286 0.094) rotate(-18.158)" fill="url(#linear-gradient-26)"/>
      </g>
    </g>
    <g id="Group_3343" data-name="Group 3343" transform="translate(49.888 61.668)">
      <g id="Group_3342" data-name="Group 3342" clip-path="url(#clip-path-46)">
        <rect id="Rectangle_2615" data-name="Rectangle 2615" width="17.555" height="17.777" transform="translate(-4.956 5.097) rotate(-46.586)" fill="url(#linear-gradient-27)"/>
      </g>
    </g>
    <g id="Group_3345" data-name="Group 3345">
      <g id="Group_3344" data-name="Group 3344" clip-path="url(#clip-path-4)">
        <path id="Path_11951" data-name="Path 11951" d="M1644.085,1934.252c.192.6.05,1.177-.317,1.295s-.821-.27-1.013-.867-.05-1.177.317-1.295.821.27,1.013.867" transform="translate(-1587.243 -1868.128)" fill="#91b3fa"/>
      </g>
    </g>
    <g id="Group_3347" data-name="Group 3347" transform="translate(36.757 71.232)">
      <g id="Group_3346" data-name="Group 3346" clip-path="url(#clip-path-48)">
        <rect id="Rectangle_2617" data-name="Rectangle 2617" width="11.963" height="48.393" transform="translate(-0.43 1.932) rotate(-78.24)" fill="url(#linear-gradient-28)"/>
      </g>
    </g>
  </g>
</svg>
