<svg id="Group_17" data-name="Group 17" xmlns="http://www.w3.org/2000/svg" xmlns:xlink="http://www.w3.org/1999/xlink" width="275.037" height="329.859" viewBox="0 0 275.037 329.859">
  <defs>
    <clipPath id="clip-path">
      <rect id="Rectangle_12" data-name="Rectangle 12" width="275.037" height="329.859" fill="none"/>
    </clipPath>
    <clipPath id="clip-path-3">
      <rect id="Rectangle_10" data-name="Rectangle 10" width="61.223" height="30.269" fill="none"/>
    </clipPath>
  </defs>
  <g id="Group_16" data-name="Group 16" clip-path="url(#clip-path)">
    <g id="Group_15" data-name="Group 15" transform="translate(0 0)">
      <g id="Group_14" data-name="Group 14" clip-path="url(#clip-path)">
        <path id="Path_84" data-name="Path 84" d="M907,340.893s4.653,4.7-1.065,26.04c-1.012,3.778-22.769,26.015-35.073,29.2S894.889,341.5,907,340.893" transform="translate(-647.531 -254.203)" fill="#1a1a1a"/>
        <path id="Path_85" data-name="Path 85" d="M702.356,292.48s-16.437,29.489,4.351,38.8,38.674,11.24,40.124-3.867,38.433-38.07,32.148-47.98-15.228-2.055-18.612-14.744-52.913-1.011-58.011,27.8" transform="translate(-519.145 -193.576)" fill="#fff"/>
        <path id="Path_86" data-name="Path 86" d="M717.885,299.222s-14.821,26.591,3.923,34.983,34.874,10.135,36.182-3.487,34.656-34.329,28.989-43.265-13.731-1.853-16.783-13.3S722.482,273.245,717.885,299.222Z" transform="translate(-531.176 -201.014)" fill="none" stroke="#2a2b7b" stroke-miterlimit="10" stroke-width="1"/>
        <path id="Path_87" data-name="Path 87" d="M827.861,288.692l-15.553-4.313L794.2,319l6.969,3.516s19.15-25.693,26.69-33.821" transform="translate(-592.234 -212.061)" fill="#1a1a1a"/>
        <path id="Path_88" data-name="Path 88" d="M770.277,447.943a5.16,5.16,0,1,0-.608-6.893,4.906,4.906,0,0,0,.608,6.893" transform="translate(-573.102 -327.276)" fill="#1a1a1a"/>
        <path id="Path_89" data-name="Path 89" d="M816.16,283.658l-15.553-4.314L782.5,313.963l6.969,3.516s19.15-25.693,26.69-33.821" transform="translate(-583.508 -208.306)" fill="#1171d8"/>
        <path id="Path_90" data-name="Path 90" d="M758.575,442.908a5.16,5.16,0,1,0-.607-6.893,4.906,4.906,0,0,0,.607,6.893" transform="translate(-564.376 -323.522)" fill="#1171d8"/>
        <path id="Path_91" data-name="Path 91" d="M679.535,33.664l2.722,16.14s17.595-6.78,17.96,4.874c.372,11.878-27.689,1.657-36.041,17.429-5.471,10.332-4.351,11.508-4.351,11.508l11.892,1.693s-.12-8.928,15.734-9.325c19.595-.491,34.765-20.01,22.425-34.8s-30.341-7.518-30.341-7.518" transform="translate(-491.959 -23.77)" fill="#1a1a1a"/>
        <path id="Path_92" data-name="Path 92" d="M649.629,266.138c-2.936-1.539-3.935-5.419-2.233-8.667s5.463-4.634,8.4-3.095,3.936,5.419,2.233,8.667-5.462,4.633-8.4,3.094" transform="translate(-482.142 -189.22)" fill="#1a1a1a"/>
        <path id="Path_93" data-name="Path 93" d="M657.184,19.818l2.722,16.14s17.595-6.78,17.96,4.874c.372,11.878-27.689,1.657-36.041,17.429-5.471,10.332-4.351,11.508-4.351,11.508l11.892,1.693s-.12-8.928,15.734-9.325c19.595-.491,34.765-20.01,22.425-34.8s-30.341-7.518-30.341-7.518" transform="translate(-475.292 -13.445)" fill="#1171d8"/>
        <path id="Path_94" data-name="Path 94" d="M627.278,252.291c-2.936-1.539-3.935-5.419-2.233-8.667s5.462-4.634,8.4-3.095,3.935,5.419,2.233,8.667-5.462,4.633-8.4,3.095" transform="translate(-465.475 -178.894)" fill="#1171d8"/>
        <path id="Path_95" data-name="Path 95" d="M394.663,53.166a4.05,4.05,0,0,1-2.818-2.827,6.181,6.181,0,0,1,.33-4.538,16.975,16.975,0,0,1,3.344-4.505,7.088,7.088,0,0,1,1.868-1.541c.533-.274,1.343-.532,1.8.018.562.683-.073,1.572-.57,2.078a7.583,7.583,0,0,1-2.07,1.4,5.993,5.993,0,0,1-4.479.648c-1.739-.61-2.21-2.578-2.09-4.232a8.14,8.14,0,0,1,1.988-4.6c2.505-2.936,6.453-3.88,10.176-3.633q.732.048,1.458.155l-.228-.175c.441,1.044-.858,2.022-1.616,2.473a27.673,27.673,0,0,1-3.467,1.675,38.774,38.774,0,0,1-7.551,2.286,37.74,37.74,0,0,1-3.98.558,22.449,22.449,0,0,1-3.768.114,2.09,2.09,0,0,1-2.137-1.646A3.893,3.893,0,0,1,381.8,34.3a9.043,9.043,0,0,1,2.46-2.166q1.517-.984,3.124-1.818a38.365,38.365,0,0,1,6.8-2.737,38.852,38.852,0,0,1,14.522-1.446,25.621,25.621,0,0,1,3.581.519c.9.214,2.044.725,1.861,1.852-.189,1.169-1.379,1.989-2.276,2.613a32.146,32.146,0,0,1-3.086,1.894A52.141,52.141,0,0,1,394.82,37.77c-2.432.52-4.881.954-7.331,1.374-2.433.418-5.209.858-7.348-.7a3.741,3.741,0,0,1-1.6-2.546,3.977,3.977,0,0,1,.881-2.78c1.376-1.85,3.607-2.973,5.6-4.028a58.258,58.258,0,0,1,29.563-6.684q1.855.077,3.7.276L417.9,22.3a3.483,3.483,0,0,1-2.124,2.739,23.247,23.247,0,0,1-4.218,1.617,76.336,76.336,0,0,1-10.081,2.5,75.774,75.774,0,0,1-10.345,1.108q-2.567.1-5.137.022a20.3,20.3,0,0,1-3.851-.413c-2.03-.453-4.5-1.412-5.271-3.542-1-2.765,1.255-5.2,3.3-6.737a44.249,44.249,0,0,1,8.184-4.752,49.8,49.8,0,0,1,9.048-3.12A49.135,49.135,0,0,1,406.88,10.4q1.182-.049,2.365-.04c.566,0,1.371,0,1.7.559s-.153,1.266-.525,1.682a9.415,9.415,0,0,1-1.72,1.376,48.117,48.117,0,0,1-17.074,7.435,47.566,47.566,0,0,1-9.317,1.109,25.7,25.7,0,0,1-4.554-.171,4.161,4.161,0,0,1-2.018-.8,3,3,0,0,1-.966-1.577c-.785-3.025,1.946-5.309,4.107-6.878a47.336,47.336,0,0,1,7.937-4.65,48.416,48.416,0,0,1,17.85-4.4q2.313-.115,4.631-.005a22.819,22.819,0,0,1,4.328.474,3.2,3.2,0,0,1,2.685,2.256c.259,1.369-.758,2.682-1.671,3.578a20.051,20.051,0,0,1-3.7,2.641q-2.072,1.261-4.253,2.333a54.431,54.431,0,0,1-8.846,3.421,54.374,54.374,0,0,1-9.41,1.856q-2.413.256-4.842.293a21.287,21.287,0,0,1-4.2-.217,5.55,5.55,0,0,1-3.307-1.652,4.22,4.22,0,0,1-.6-4.029,7.747,7.747,0,0,1,2.66-3.541,30.451,30.451,0,0,1,3.949-2.607,54.172,54.172,0,0,1,26.865-7.291q2.354-.011,4.7.185a23.685,23.685,0,0,1,4.424.62,3.083,3.083,0,0,1,1.625.938,1.835,1.835,0,0,1,.335,1.616,5.541,5.541,0,0,1-2.755,2.954,45.3,45.3,0,0,1-4.294,2.121q-2.279,1.022-4.632,1.866a67.712,67.712,0,0,1-19.137,3.894q-2.487.138-4.979.091a35.525,35.525,0,0,1-4.54-.262c-1.848-.276-5.031-1.245-4.7-3.687.193-1.431,1.588-2.429,2.659-3.226a33.022,33.022,0,0,1,3.718-2.39,38.458,38.458,0,0,1,7.989-3.258,66.314,66.314,0,0,1,17.6-2.238c2.886-.033,5.772.048,8.654.183l-.193-.711a122.434,122.434,0,0,1-20.387,8.341q-5.239,1.61-10.607,2.749c-1.786.379-3.582.729-5.385,1.016a1.557,1.557,0,0,1-1.114-.081.74.74,0,0,1-.265-.728,3.71,3.71,0,0,1,.958-1.832A50.93,50.93,0,0,1,387.2,1.3a.4.4,0,0,0,.137-.522.383.383,0,0,0-.522-.137,51.756,51.756,0,0,0-8.088,7.738,10.214,10.214,0,0,0-1.5,2.029,2.281,2.281,0,0,0-.175,2,1.776,1.776,0,0,0,1.979.711c.953-.137,1.9-.321,2.848-.5a122.831,122.831,0,0,0,22.156-6.375A123.807,123.807,0,0,0,415.808.9a.385.385,0,0,0-.193-.711,103.79,103.79,0,0,0-18.853.515A43.664,43.664,0,0,0,379.524,6.47a24.009,24.009,0,0,0-3.744,2.735,3.933,3.933,0,0,0-1.478,3.717,3.985,3.985,0,0,0,2.188,2.452,10.149,10.149,0,0,0,3.671,1.017,59.971,59.971,0,0,0,10.189.043,68.713,68.713,0,0,0,10.172-1.507,67.868,67.868,0,0,0,9.84-3.02q2.417-.948,4.758-2.078a17.106,17.106,0,0,0,4.1-2.431c.981-.878,1.9-2.159,1.584-3.547-.326-1.435-1.741-2.09-3.053-2.363a35.888,35.888,0,0,0-4.686-.564Q410.58.744,408.088.8a55.08,55.08,0,0,0-19.2,3.891,53.626,53.626,0,0,0-8.851,4.505c-2.605,1.652-5.445,3.809-5.571,7.181a4.53,4.53,0,0,0,1.653,3.742,7.5,7.5,0,0,0,3.794,1.4,29.075,29.075,0,0,0,4.659.108q2.48-.084,4.945-.4a55.539,55.539,0,0,0,19.117-6.058q2.19-1.167,4.266-2.532A11.38,11.38,0,0,0,416.328,9.5a3.648,3.648,0,0,0,.333-3.909,4.756,4.756,0,0,0-3.369-1.928,31.684,31.684,0,0,0-4.69-.416,47.624,47.624,0,0,0-4.79.083,49.262,49.262,0,0,0-18.68,5.077,42.822,42.822,0,0,0-8.138,5.174,8.6,8.6,0,0,0-2.825,3.669,4.857,4.857,0,0,0,.255,3.9,4.561,4.561,0,0,0,3.734,2.018,34.561,34.561,0,0,0,4.8.1,49.112,49.112,0,0,0,19.069-4.577,47.911,47.911,0,0,0,4.292-2.27,32.909,32.909,0,0,0,4.076-2.737c.971-.8,2.131-2.472.867-3.556a2.885,2.885,0,0,0-1.87-.527c-.836-.016-1.674,0-2.509.039a50.588,50.588,0,0,0-19.405,4.787,49.492,49.492,0,0,0-4.367,2.33,32.569,32.569,0,0,0-4.025,2.745,9.451,9.451,0,0,0-2.782,3.428,4.926,4.926,0,0,0-.056,3.878c.954,2.243,3.468,3.315,5.7,3.813a21.432,21.432,0,0,0,4.054.441q2.717.08,5.435-.034a76.891,76.891,0,0,0,21.352-3.965c2.252-.761,5.814-1.828,5.881-4.754a.391.391,0,0,0-.381-.381,57.774,57.774,0,0,0-11.506-.075,59.439,59.439,0,0,0-11.295,2.167,58.623,58.623,0,0,0-10.6,4.29,26.107,26.107,0,0,0-4.572,2.827,6.356,6.356,0,0,0-2.514,3.925,4.371,4.371,0,0,0,1.925,4.021,7.656,7.656,0,0,0,5.2,1.188,57.765,57.765,0,0,0,5.8-.917c1.848-.335,3.691-.695,5.522-1.111a55.779,55.779,0,0,0,10.552-3.39,34.416,34.416,0,0,0,4.85-2.649c1.327-.876,3.235-2.065,3.289-3.86.055-1.832-1.945-2.359-3.377-2.6a38.448,38.448,0,0,0-5.5-.516,39.689,39.689,0,0,0-10.945,1.308A39.132,39.132,0,0,0,385,30.775a12.382,12.382,0,0,0-3.889,3.18c-.793,1.093-1.467,2.686-.7,3.968.956,1.593,3.085,1.416,4.682,1.349a39.286,39.286,0,0,0,5.9-.7,38.95,38.95,0,0,0,5.734-1.59,32.672,32.672,0,0,0,5.368-2.414,4.815,4.815,0,0,0,1.825-1.707c.289-.523.588-1.91-.282-2.032a17.515,17.515,0,0,0-5.538.052,10.863,10.863,0,0,0-8.134,5.9,7.757,7.757,0,0,0-.608,4.923,3.915,3.915,0,0,0,3.17,3.1,7.53,7.53,0,0,0,4.483-.932,8.5,8.5,0,0,0,2-1.338,3.247,3.247,0,0,0,1.155-2.094,1.71,1.71,0,0,0-1.141-1.663A2.69,2.69,0,0,0,397,39.1a7.034,7.034,0,0,0-1.842,1.47c-.629.659-1.251,1.326-1.826,2.034a10.949,10.949,0,0,0-2.423,4.611,6.587,6.587,0,0,0,.56,4.21A4.566,4.566,0,0,0,394.46,53.9c.478.111.682-.625.2-.736" transform="translate(-278.802 -0.002)" fill="#3cc8eb"/>
        <path id="Path_96" data-name="Path 96" d="M16.236,561.52c-1.91-.291-2.893-2.089-3.441-3.769a21.149,21.149,0,0,1-.678-2.933c-.2-1.172-.395-2.347-.534-3.529a23.771,23.771,0,0,1,.034-7.016,10.006,10.006,0,0,1,2.931-5.87,4.03,4.03,0,0,1,2.705-1.072,1.975,1.975,0,0,1,1.817,1.637,3.918,3.918,0,0,1-.76,2.65,7.483,7.483,0,0,1-2.359,2.2,13.82,13.82,0,0,1-3.376,1.557,11.172,11.172,0,0,1-3.485.563,2.733,2.733,0,0,1-2.584-1.329,4.864,4.864,0,0,1,.068-3.269,11.114,11.114,0,0,1,8.8-7.726,9.548,9.548,0,0,1,1.508-.108l-.27-.651a18.354,18.354,0,0,1-9.938,6.122q-.735.17-1.483.278a3.986,3.986,0,0,1-1.465.063c-.9-.226-.595-1.376-.311-1.977a13.2,13.2,0,0,1,3.556-4.416,13.94,13.94,0,0,1,5.694-2.817l-.469-.469a6.535,6.535,0,0,1-4.347,4.836,4.6,4.6,0,0,1-2.314.228,1.414,1.414,0,0,1-.964-.634,3.152,3.152,0,0,1-.348-1.174,6.359,6.359,0,0,1,2.914-6.209,6.436,6.436,0,0,1,5.347-.579l-.228-.56a8.366,8.366,0,0,1-3.6,3.071,8.205,8.205,0,0,1-2.289.656,3.934,3.934,0,0,1-2.324-.185,1.681,1.681,0,0,1-.517-2,8.165,8.165,0,0,1,.954-2.15,10.732,10.732,0,0,1,3.152-3.32,10.468,10.468,0,0,1,4.831-1.79l-.27-.651a11.963,11.963,0,0,1-4.339,3.357,11.875,11.875,0,0,1-2.607.835,7.736,7.736,0,0,1-2.84.152,1.906,1.906,0,0,1-1.547-1.266,3.416,3.416,0,0,1,.077-1.988,7.7,7.7,0,0,1,3.041-3.834,13.568,13.568,0,0,1,5.859-2.469l-.294-.7a51.135,51.135,0,0,1-7.639,4.541c-.442.213-.056.871.385.659a51.132,51.132,0,0,0,7.639-4.542.383.383,0,0,0-.294-.7,14.064,14.064,0,0,0-5.749,2.336,9.075,9.075,0,0,0-3.581,4.189c-.512,1.418-.5,3.25.922,4.13a4.83,4.83,0,0,0,3.039.4,12.438,12.438,0,0,0,2.96-.673,12.619,12.619,0,0,0,5.508-3.892c.182-.226.095-.687-.27-.651A11.537,11.537,0,0,0,3.9,524.433c-.79,1.275-1.9,3.444-.8,4.838a2.876,2.876,0,0,0,2.408.83,8.792,8.792,0,0,0,2.686-.483,9.182,9.182,0,0,0,4.717-3.685.386.386,0,0,0-.228-.56,7.2,7.2,0,0,0-5.469.4,6.943,6.943,0,0,0-3.467,4.1,7.025,7.025,0,0,0-.321,2.739A3.2,3.2,0,0,0,4.5,535.09a3.64,3.64,0,0,0,2.676.336,6.887,6.887,0,0,0,2.429-.931,7.233,7.233,0,0,0,3.323-4.652.386.386,0,0,0-.469-.469,14.786,14.786,0,0,0-9.586,7.349,2.827,2.827,0,0,0-.293,2.646c.58.99,1.865.761,2.811.625a18.791,18.791,0,0,0,6.087-2,18.847,18.847,0,0,0,5.671-4.593.387.387,0,0,0-.27-.651A11.819,11.819,0,0,0,6.22,540.039c-.827,2.02-1.414,5.241,1.092,6.314a6.379,6.379,0,0,0,3.472.214,14.483,14.483,0,0,0,3.9-1.185c2.149-.993,4.317-2.544,5.011-4.926a3.119,3.119,0,0,0-.449-2.891,2.886,2.886,0,0,0-2.865-.925c-2.407.479-3.934,2.751-4.777,4.879a17.8,17.8,0,0,0-.98,7.5c.069,1.3.223,2.586.412,3.87.179,1.211.365,2.429.633,3.624.432,1.923,1.189,4.176,2.977,5.25a3.814,3.814,0,0,0,1.389.5c.48.073.687-.662.2-.736" transform="translate(0 -382.706)" fill="#3cc8eb"/>
        <path id="Path_97" data-name="Path 97" d="M20.295,294.331s-6.164-17.647-2.9-23.568,14.866-4.108,20.3-4.471-.2-8.387,15.409-5.076,35.532-3.444,34.988,5.257a165.82,165.82,0,0,0,.011,17.766s-14.03,6.889-20.8,4.714-2.6,4.472-3.324,4.049-11.778,9.174-24.83,3.554-18.86-2.225-18.86-2.225" transform="translate(-12.26 -194.193)" fill="#1a1a1a"/>
        <path id="Path_98" data-name="Path 98" d="M33.429,272.574s-6.164-17.647-2.9-23.568,14.865-4.108,20.3-4.471-.2-8.387,15.409-5.076,35.532-3.444,34.988,5.257a165.825,165.825,0,0,0,.011,17.766s-14.03,6.889-20.8,4.714-2.6,4.472-3.324,4.049-11.778,9.174-24.83,3.554-18.86-2.225-18.86-2.225" transform="translate(-22.054 -177.969)" fill="#1171d8"/>
        <path id="Path_99" data-name="Path 99" d="M76.863,289.457c.664.118.874-.784.339-1.1a.678.678,0,0,0-.777.128,2.525,2.525,0,0,0-.521,1.06,9.1,9.1,0,0,0-.7,4.92,4.191,4.191,0,0,0,2.406,3.03c1.528.6,3.063-.254,4.281-1.132a37.8,37.8,0,0,0,3.846-3.182q.911-.861,1.762-1.781a9.094,9.094,0,0,0,1.354-1.711c.5-.91.946-2.342.049-3.169-.962-.886-2.492-.395-3.363.374a4.663,4.663,0,0,0-.592,5.95c1.572,2.144,4.686,2.471,7.013,1.514,2.715-1.117,4.393-3.793,5.316-6.465.5-1.435.965-3.215-.133-4.5a2.1,2.1,0,0,0-1.734-.776,2.156,2.156,0,0,0-1.521.916,7.78,7.78,0,0,0-1.218,3.769,3.894,3.894,0,0,0,1.049,3.484,3.941,3.941,0,0,0,3.989.291,13.354,13.354,0,0,0,3.8-2.159,4.233,4.233,0,0,0,1.739-3.312,3.169,3.169,0,0,0-1.66-2.763,2.7,2.7,0,0,0-3.313,1.406,4.611,4.611,0,0,0-.442,3.431,5.319,5.319,0,0,0,5.091,4.173,5.456,5.456,0,0,0,4.794-4.5,4.544,4.544,0,0,0-.7-3.539,2.36,2.36,0,0,0-3.635.026c-1.654,1.654-1.253,4.46.2,6.1,1.742,1.96,4.731,1.731,6.7.254a5.748,5.748,0,0,0,2.169-3.017,3.494,3.494,0,0,0-.625-3.228,1.471,1.471,0,0,0-1.515-.48,2.879,2.879,0,0,0-1.281,1.054,3.776,3.776,0,0,0-.422,3.272,4.171,4.171,0,0,0,2.757,2.491,6.151,6.151,0,0,0,4.139-.227,12.951,12.951,0,0,0,3.793-2.548c.365-.33-.176-.868-.539-.54-1.829,1.657-4.2,3.291-6.8,2.685a3.65,3.65,0,0,1-2.507-1.806,3.011,3.011,0,0,1,.048-2.627,2.249,2.249,0,0,1,.906-.962,1.586,1.586,0,0,1,.249-.113c-.093.031-.03-.013.048.007a1.473,1.473,0,0,1,.168.049,1.175,1.175,0,0,1,.462.332,2.832,2.832,0,0,1,.342,2.582,5.255,5.255,0,0,1-4.745,3.491,3.866,3.866,0,0,1-3.826-3.409,3.383,3.383,0,0,1,.539-2.5c.639-.876,2-1.455,2.77-.414,1.212,1.638.571,4.037-.717,5.42a4.252,4.252,0,0,1-2.483,1.364,3.815,3.815,0,0,1-2.678-.69,4.692,4.692,0,0,1-1.919-5.036c.3-.942,1.156-2.069,2.271-1.918a2.142,2.142,0,0,1,1.568,1.9c.378,2.356-2.407,3.833-4.161,4.678a4.612,4.612,0,0,1-3.49.567,2.531,2.531,0,0,1-1.416-2.543,8.772,8.772,0,0,1,.656-3.216,2.605,2.605,0,0,1,.883-1.242,1.176,1.176,0,0,1,1.385.09c1.15.887.709,2.54.333,3.7a13.49,13.49,0,0,1-1.565,3.329,7.029,7.029,0,0,1-5.667,3.42c-2,.024-4.052-1.042-4.445-3.136-.3-1.6.436-3.648,2.151-4.089a1.19,1.19,0,0,1,1.422.414,1.687,1.687,0,0,1-.012,1.22,7.516,7.516,0,0,1-2.043,2.841,37.467,37.467,0,0,1-3.083,2.87q-.839.7-1.718,1.342a9.577,9.577,0,0,1-1.683,1.051,2.849,2.849,0,0,1-1.9.236,2.72,2.72,0,0,1-1.316-.867,4.38,4.38,0,0,1-.891-3.477,10.909,10.909,0,0,1,.491-2.029c.111-.34.23-.677.351-1.014a2.98,2.98,0,0,0,.174-.394l.038-.036-.175-.051c-.16-.137.315-.261.289-.266-.48-.085-.686.65-.2.736" transform="translate(-55.99 -210.744)" fill="#fff"/>
        <path id="Path_100" data-name="Path 100" d="M576.384,423.6v16.131l-1.82,5.553-8.013-20.176Z" transform="translate(-422.475 -315.878)"/>
        <path id="Path_101" data-name="Path 101" d="M471.5,445.587l1.088,24.655,34.686-12.327s-5.439-17.041-5.378-33.356-30.4,21.029-30.4,21.029" transform="translate(-351.597 -313.515)" fill="#e78964"/>
        <path id="Path_102" data-name="Path 102" d="M405.1,425.724l-1.571,2.115a29.458,29.458,0,0,0,1.571,9.91s4.592,4.834,8.218,4.834-8.218-16.86-8.218-16.86" transform="translate(-300.904 -317.461)" fill="#e78964"/>
        <path id="Path_103" data-name="Path 103" d="M475.112,502l6.176,6.7s12.161.791,18.506-3.351c0-.275,5.139-16.08,5.139-16.08Z" transform="translate(-354.289 -364.852)" fill="#d86059"/>
        <path id="Path_104" data-name="Path 104" d="M452.25,371.575a23.411,23.411,0,0,1-2.106,5.966,99.04,99.04,0,0,1-5.389,9.623c-4.107,2.78-16.8,3.507-16.8,3.507-5.44-1.813-13.295-10.274-13.295-10.274-2.787-5.574-6.286-16.138-8.606-23.579-.979-3.133-1.747-5.714-2.164-7.136-.226-.763-.348-1.193-.348-1.193l.6-.287L431.7,334.955s16.677,5.559,18.854,12.931,1.691,23.688,1.691,23.688" transform="translate(-300.923 -249.775)" fill="#ffba90"/>
        <path id="Path_105" data-name="Path 105" d="M452.951,371.575a23.411,23.411,0,0,1-2.106,5.966c1.706-14.409-3.992-31.1-3.992-31.1l-12.392,7.3c-10.816,3.906-23.505,3.392-27.7,3.085-.916-.066-1.427-.125-1.427-.125a16.275,16.275,0,0,1-.737-7.011,14.729,14.729,0,0,1,.252-1.48l27.559-13.247s16.677,5.559,18.854,12.931,1.691,23.688,1.691,23.688" transform="translate(-301.623 -249.775)" fill="#f5997e"/>
        <path id="Path_106" data-name="Path 106" d="M563.422,320.8l4.351,19.458,2.659-5.438,2.719-10.394s1.6-13.234-4.864-16.587-4.865,12.962-4.865,12.962" transform="translate(-420.011 -229.215)" fill="#1a1a1a"/>
        <path id="Path_107" data-name="Path 107" d="M395.827,310.75s-7.584-5.151-6.134-16.27c0,0,.967-16.074,19.579-14.382a99.74,99.74,0,0,0,32.511-2.175s-3.626,18.612-7.856,23.2c0,0-16.95,9.865-38.1,9.623" transform="translate(-290.456 -207.246)" fill="#1a1a1a"/>
        <path id="Path_108" data-name="Path 108" d="M397.616,378.422l4.513,13.959-3.807-2.357s-4.773-12.418-5.624-19.034,4.918,7.431,4.918,7.431" transform="translate(-292.77 -275.326)" fill="#1a1a1a"/>
        <path id="Path_109" data-name="Path 109" d="M591.026,371.809l1.813-4.169,3.565-.846s1.813,9.427,0,13.234l-5.378,3.686Z" transform="translate(-440.726 -273.517)" fill="#f5997e"/>
        <path id="Path_110" data-name="Path 110" d="M599.838,392.285l.5-1.147.981-.233s.5,2.594,0,3.642l-1.48,1.014Z" transform="translate(-447.297 -291.497)" fill="#d86059"/>
        <path id="Path_111" data-name="Path 111" d="M507.018,491.288c.579,1.75-2.673.379-6.214,1.357-2.693.742-4.874,3.186-5.174,1a1.567,1.567,0,0,1,.01-.488c.5-2.863,8.535-5.439,10.886-2.73a2.412,2.412,0,0,1,.492.865" transform="translate(-369.579 -364.852)" fill="#fff"/>
        <path id="Path_112" data-name="Path 112" d="M507.018,494.25c.579,1.75-2.673.379-6.214,1.357-2.693.742-4.874,3.186-5.174,1a1.567,1.567,0,0,1,.01-.488c2.585-1.854,7.795-3.331,10.886-2.73a2.412,2.412,0,0,1,.492.865" transform="translate(-369.579 -367.814)" fill="#2a2b7b"/>
        <path id="Path_113" data-name="Path 113" d="M495.293,445.394s-1.43,4.5-.617,5.642,3.955.667,3.955.667l.122-1.121s-3.6.741-3.676-.715a43.322,43.322,0,0,1,.215-4.474" transform="translate(-368.692 -332.129)" fill="#d86059"/>
        <path id="Path_114" data-name="Path 114" d="M459.32,337.869s16.211-3.266,21.925-7.347c0,0-.583,8.047-21.925,7.347" transform="translate(-342.513 -246.469)" fill="#61566d"/>
        <path id="Path_115" data-name="Path 115" d="M531.116,665.47c-2.177,17.766-5.076,68.525-5.076,68.525l-19.861-.435-42.138-.923H344.663l-.954-91.737-.2-19.546,17.562-53.294,4.384-2.286,1.912-1,5.066-2.64s-.938-7.983,1.406-11.105c.018-.026.038-.051.056-.074s.033-.041.048-.061c0,0,.186.1.554.257l.036.015c2.922,1.223,16.636,5.671,39.656-6.8l5.8,10.757.2.051c.557.137,2.223.549,4.664,1.177q.851.217,1.821.47c.949.244,1.979.514,3.08.8l.122.033c16.362,4.323,47.621,13.168,51.082,18.493,4.715,7.25,52.331,71.548,50.156,89.314" transform="translate(-256.151 -405.936)" fill="#fff"/>
        <path id="Path_116" data-name="Path 116" d="M415.9,615.084,397.751,627l3.768-11.433,11.362-5.923Z" transform="translate(-296.601 -454.61)" fill="#fff"/>
        <path id="Path_117" data-name="Path 117" d="M741.226,825.546s22.122,41.877,21.53,50.85-9.022,69.07-9.022,69.07H737.147s6.254-79.4,4.079-119.92" transform="translate(-549.688 -615.607)" fill="#e0e1e2"/>
        <path id="Path_118" data-name="Path 118" d="M739.255,692.427c-2.177,17.766-5.076,68.525-5.076,68.525l-19.861-.435c1.7-13.175,7.779-60.31,8.712-69.178,1.086-10.332-40.79-72.334-46.23-81.306s-54.174-18.643-54.174-18.643l5.5-9.3.2.051,9.564,2.451.122.033c16.362,4.323,47.621,13.168,51.082,18.493,4.715,7.25,52.331,71.548,50.156,89.314" transform="translate(-464.29 -434.059)" fill="#fff"/>
        <g id="Group_13" data-name="Group 13" transform="translate(109.3 137.269)" style="mix-blend-mode: multiply;isolation: isolate">
          <g id="Group_12" data-name="Group 12">
            <g id="Group_11" data-name="Group 11" clip-path="url(#clip-path-3)">
              <path id="Path_119" data-name="Path 119" d="M491.026,552.241l-.008.013-.59,1-4.758,8.051-.511.862s-28.724,13.969-51.3,4.728v0h0q-.584-.24-1.165-.5l-2.385-4.3-.5-.905,1.912-1,4.969-2.589.1-.051s-.153-1.294-.181-3.047v0c-.008-.432-.008-.893.005-1.368.02-.748.066-1.528.16-2.3.01-.089.02-.175.033-.264s.023-.175.038-.262.025-.173.041-.262c.008-.051.015-.1.026-.15.013-.079.028-.158.043-.234q.05-.275.114-.542l.046-.191a9.046,9.046,0,0,1,.45-1.366c.031-.069.061-.137.092-.2s.064-.135.1-.2.069-.13.1-.191q.107-.187.221-.359c.038-.058.079-.114.12-.168a.787.787,0,0,1,.056-.074c.183.064.379.127.59.191.079.033.163.069.257.1l.1.038c.132.053.28.107.44.165.041.015.081.028.125.043.252.089.537.183.854.277.107.033.216.064.328.1.224.064.465.127.72.191.127.031.257.064.392.094l.414.092.214.046c.656.137,1.383.262,2.184.366l.5.061c.348.038.712.074,1.088.1.086.008.175.015.262.02l.114.008c.1.008.2.015.3.02.524.033,1.068.053,1.638.064.1,0,.193,0,.292,0,6.79.061,16.7-1.648,29.484-8.57l4.532,8.4,1.269,2.352.2.051c.557.137,2.223.549,4.664,1.177q.851.218,1.821.471" transform="translate(-429.803 -539.785)" fill="#e0e1e2"/>
            </g>
          </g>
        </g>
        <line id="Line_1" data-name="Line 1" x1="18.09" y2="12.02" transform="translate(101.814 155.518)" fill="none" stroke="#e0e1e2" stroke-miterlimit="10" stroke-width="3"/>
        <path id="Path_120" data-name="Path 120" d="M625.329,599.3s46.216,6.8,59.547,18.99c0,0,43.973,56.518,49.726,85.071l-7.267,66.985" transform="translate(-466.306 -446.895)" fill="none" stroke="#e0e1e2" stroke-miterlimit="10" stroke-width="3"/>
        <path id="Path_121" data-name="Path 121" d="M504.255,550.542l-.328.557-5.173,8.748s-22.117,10.757-39.036,3.143l-3.021-5.44s-.153-1.294-.181-3.047v0c-.008-.432-.008-.893.005-1.368.02-.748.066-1.528.16-2.3.01-.089.02-.175.033-.264s.023-.175.038-.262.025-.173.041-.262c.008-.051.015-.1.025-.15.013-.079.028-.158.043-.234q.05-.275.114-.542l.046-.191a9.05,9.05,0,0,1,.45-1.366c.031-.069.061-.137.092-.2s.064-.135.1-.2.069-.13.1-.191q.107-.187.221-.359c.038-.058.079-.114.12-.168a.786.786,0,0,1,.056-.074c.015-.02.033-.041.048-.061,0,0,.183.1.542.252.079.033.163.069.257.1l.1.038c.132.053.28.107.44.165.041.015.081.028.125.043.252.089.537.183.854.277.1.033.214.064.328.1.224.064.465.127.72.191.127.031.257.064.392.094l.415.092.214.046c.656.137,1.383.262,2.184.366l.5.061c.348.038.712.074,1.088.1.086.008.173.015.262.02l.114.008c.1.008.2.015.3.02.524.033,1.068.053,1.638.064.1,0,.2,0,.292,0,6.79.061,16.7-1.648,29.484-8.57l4.532,8.4Z" transform="translate(-340.42 -402.516)" fill="#fff"/>
        <path id="Path_122" data-name="Path 122" d="M462.754,990.653H390.287l-.778-91.737c14.356-3.55,51.087-6.974,71.827-6.974,0,0,1.639,63.088,1.419,98.711" transform="translate(-290.456 -665.119)" fill="#fff"/>
        <path id="Path_123" data-name="Path 123" d="M368.114,646.376,346.692,697.11,343,732.755l-1.361-35.079,14.27-43.286Z" transform="translate(-254.757 -482)" fill="#e0e1e2"/>
        <path id="Path_124" data-name="Path 124" d="M457.463,562.7s17.155,8.083,43.98-6.3" transform="translate(-341.129 -414.91)" fill="none" stroke="#e0e1e2" stroke-miterlimit="10" stroke-width="3"/>
        <path id="Path_125" data-name="Path 125" d="M349.6,471.122s4.472-5.2,6.285-5.016,5.312,7.191,3.864,10.575-4.771,5.982-7.248,15.53-2.9-21.09-2.9-21.09" transform="translate(-260.696 -347.571)" fill="#d86059"/>
        <path id="Path_126" data-name="Path 126" d="M288.176,342.991l-.315,3.021-4.758,3.929v5.076s-11.24,9.124-12.087,13.537l0,.005.005,0c.208.3,6.5,9.346,5.551,19.449-.651,6.912-.809,11.632-.844,13.984-.015,1.144,0,1.727,0,1.727l-8.6-.209L245.756,403l2.741-15.538.521-2.953s-6.645-20.062-.844-30.214,28.281-19.337,28.281-19.337l2.78.483,2.022,1.915.275.259,1.745-.028,1.76-.03Z" transform="translate(-183.259 -249.775)" fill="#ffba90"/>
        <path id="Path_127" data-name="Path 127" d="M276.575,486.547c-.651,6.912-.809,11.632-.844,13.984L272.4,499.9s-2.06.842-5.274,2.146l-21.372-.516,2.741-15.538,24.09-1.139c2.507-6.269-1.475-17.494-1.569-17.761l.005,0c.208.3,6.5,9.346,5.551,19.449" transform="translate(-183.259 -348.311)" fill="#f4ac84"/>
        <path id="Path_128" data-name="Path 128" d="M329.524,344.616c-4.857,1.032-21.43,13.656-21.43,13.656l-.318-1c3.174-3.718,19.729-12.891,19.729-12.891l.275.259Z" transform="translate(-229.508 -256.807)" fill="#e78964"/>
        <path id="Path_129" data-name="Path 129" d="M345.3,385.983l-4.935-1.665-10.657,8.416-.545-.739,11.039-8.707,5.922,2.014Z" transform="translate(-245.454 -285.817)" fill="#e78964"/>
        <path id="Path_130" data-name="Path 130" d="M115.981,649.735l1.361,35.079s-23.269,21.9-36.167,27.462h0a17.4,17.4,0,0,1-3.26,1.088c-9.6,2.011-24.7,3.837-33.86-16.344a74.958,74.958,0,0,1-5.025-16.558s30.819-77.046,35.531-93.182l7.131-5.2,9.91.247,22.689.565,15.866.4,5.8,6.525Z" transform="translate(-29.102 -434.059)" fill="#fff"/>
        <path id="Path_131" data-name="Path 131" d="M81.991,676.927c-14.139,25.557-12.509,34.527-.819,35.348a17.4,17.4,0,0,1-3.26,1.088c-9.6,2.011-24.7,3.837-33.86-16.344a74.958,74.958,0,0,1-5.025-16.558s30.819-77.046,35.531-93.182l7.131-5.2.231.005,7.878.2,1.8.046,22.689.565c-5.607,20.222-20.947,73.511-32.3,94.031" transform="translate(-29.102 -434.059)" fill="#f9f9f9"/>
        <path id="Path_132" data-name="Path 132" d="M89.8,582.3c-12.135,25.619-36.134,80.027-45.747,114.734a74.958,74.958,0,0,1-5.025-16.558S69.845,603.431,74.557,587.3l7.362-5.19Z" transform="translate(-29.102 -434.074)" fill="#f9f9f9"/>
      </g>
    </g>
  </g>
</svg>
